<svg width="70" height="70" viewBox="0 0 70 70" fill="none" xmlns="http://www.w3.org/2000/svg">
<rect width="70" height="70" rx="11.5042" fill="#48C884" fill-opacity="0.35" style="fill:#48C884;fill:color(display-p3 0.2824 0.7843 0.5176);fill-opacity:0.35;"/>
<path d="M34.2794 18.9141C28.6943 18.9141 24.1554 23.453 24.1554 29.0381V33.9146C24.1554 34.9438 23.7167 36.5131 23.1936 37.3905L21.2531 40.6133C20.0551 42.6044 20.8819 44.8148 23.0755 45.5572C30.3479 47.987 38.1941 47.987 45.4665 45.5572C47.5082 44.8823 48.4025 42.4694 47.2889 40.6133L45.3484 37.3905C44.8422 36.5131 44.4035 34.9438 44.4035 33.9146V29.0381C44.4035 23.4699 39.8477 18.9141 34.2794 18.9141Z" stroke="white" style="stroke:white;stroke-opacity:1;" stroke-width="2.53102" stroke-miterlimit="10" stroke-linecap="round"/>
<path d="M37.3994 19.3995C36.8763 19.2476 36.3364 19.1295 35.7796 19.062C34.1597 18.8595 32.6074 18.9777 31.1562 19.3995C31.6456 18.1509 32.8605 17.2734 34.2778 17.2734C35.6952 17.2734 36.9101 18.1509 37.3994 19.3995Z" stroke="white" style="stroke:white;stroke-opacity:1;" stroke-width="2.53102" stroke-miterlimit="10" stroke-linecap="round" stroke-linejoin="round"/>
<path d="M39.3428 46.1641C39.3428 48.9482 37.0649 51.2261 34.2808 51.2261C32.8972 51.2261 31.6148 50.6524 30.7036 49.7412C29.7924 48.8301 29.2188 47.5477 29.2188 46.1641" stroke="white" style="stroke:white;stroke-opacity:1;" stroke-width="2.53102" stroke-miterlimit="10"/>
</svg>
