<svg width="16" height="16" viewBox="0 0 16 16" fill="none" xmlns="http://www.w3.org/2000/svg">
<path d="M9.98579 2.01774L10.6257 0.863342C10.6339 0.848532 10.6391 0.83225 10.641 0.815425C10.6429 0.798601 10.6415 0.781563 10.6368 0.765285C10.6322 0.749008 10.6244 0.733808 10.6138 0.720556C10.6033 0.707303 10.5902 0.696256 10.5754 0.688046C10.5455 0.671464 10.5102 0.667444 10.4774 0.676869C10.4445 0.686294 10.4167 0.708392 10.4001 0.738302L9.75315 1.90549C9.20114 1.6635 8.60496 1.53856 8.00223 1.53856C7.39951 1.53856 6.80333 1.6635 6.25132 1.90549L5.60433 0.738302C5.58775 0.708392 5.55996 0.686294 5.52709 0.676869C5.49422 0.667444 5.45894 0.671464 5.42903 0.688046C5.39912 0.704627 5.37703 0.732411 5.3676 0.765285C5.35818 0.79816 5.3622 0.833432 5.37878 0.863342L6.01868 2.01774C5.40956 2.31799 4.8949 2.78019 4.53115 3.35364C4.1674 3.9271 3.9686 4.58966 3.95657 5.26864H12.0479C12.0359 4.58965 11.8371 3.92709 11.4733 3.35364C11.1096 2.78018 10.5949 2.31798 9.98579 2.01774ZM6.13496 3.78814C6.06814 3.78814 6.00282 3.76832 5.94726 3.73119C5.89169 3.69407 5.84839 3.6413 5.82282 3.57956C5.79724 3.51783 5.79055 3.44989 5.80359 3.38435C5.81663 3.31881 5.8488 3.25861 5.89606 3.21136C5.94331 3.16411 6.00351 3.13193 6.06905 3.11889C6.13459 3.10586 6.20252 3.11255 6.26426 3.13812C6.326 3.16369 6.37876 3.207 6.41589 3.26256C6.45301 3.31812 6.47283 3.38345 6.47283 3.45027C6.47273 3.53985 6.4371 3.62573 6.37376 3.68907C6.31042 3.75241 6.22454 3.78803 6.13496 3.78814ZM9.86948 3.78814C9.80266 3.78814 9.73734 3.76832 9.68178 3.73119C9.62621 3.69407 9.58291 3.6413 9.55734 3.57956C9.53176 3.51783 9.52507 3.44989 9.53811 3.38435C9.55115 3.31881 9.58332 3.25861 9.63058 3.21136C9.67783 3.16411 9.73803 3.13193 9.80357 3.11889C9.86911 3.10586 9.93704 3.11255 9.99878 3.13812C10.0605 3.16369 10.1133 3.207 10.1504 3.26256C10.1875 3.31812 10.2073 3.38345 10.2073 3.45027C10.2072 3.53985 10.1716 3.62573 10.1083 3.68907C10.0449 3.75241 9.95906 3.78803 9.86948 3.78814ZM3.95651 11.4528C3.95651 11.7122 4.05956 11.961 4.24299 12.1444C4.42641 12.3278 4.67519 12.4309 4.9346 12.4309H5.58366V14.4315C5.58334 14.5508 5.60656 14.669 5.652 14.7794C5.69743 14.8897 5.76419 14.99 5.84844 15.0744C5.93269 15.1589 6.03278 15.2259 6.14298 15.2717C6.25318 15.3174 6.37132 15.341 6.49063 15.341C6.60995 15.341 6.72809 15.3174 6.83828 15.2717C6.94848 15.2259 7.04858 15.1589 7.13283 15.0744C7.21708 14.99 7.28384 14.8897 7.32927 14.7794C7.37471 14.669 7.39793 14.5508 7.3976 14.4315V12.4309H8.60684V14.4315C8.60652 14.5508 8.62974 14.669 8.67518 14.7794C8.72061 14.8897 8.78737 14.99 8.87162 15.0744C8.95587 15.1589 9.05596 15.2259 9.16616 15.2717C9.27636 15.3174 9.3945 15.341 9.51381 15.341C9.63313 15.341 9.75127 15.3174 9.86146 15.2717C9.97166 15.2259 10.0718 15.1589 10.156 15.0744C10.2403 14.99 10.307 14.8897 10.3525 14.7794C10.3979 14.669 10.4211 14.5508 10.4208 14.4315V12.4309H11.0699C11.3293 12.4309 11.5781 12.3278 11.7615 12.1444C11.9449 11.961 12.048 11.7122 12.048 11.4528V5.58871H3.95651V11.4528ZM2.71166 5.4331C2.4712 5.43338 2.24066 5.52902 2.07063 5.69905C1.9006 5.86908 1.80496 6.09962 1.80469 6.34008V10.119C1.80437 10.2384 1.82759 10.3566 1.87302 10.4669C1.91846 10.5772 1.98521 10.6775 2.06946 10.762C2.15372 10.8464 2.25381 10.9135 2.36401 10.9592C2.47421 11.0049 2.59235 11.0285 2.71166 11.0285C2.83097 11.0285 2.94911 11.0049 3.05931 10.9592C3.16951 10.9135 3.2696 10.8464 3.35386 10.762C3.43811 10.6775 3.50486 10.5772 3.5503 10.4669C3.59573 10.3566 3.61895 10.2384 3.61863 10.119V6.34008C3.61836 6.09961 3.52272 5.86908 3.35268 5.69905C3.18265 5.52902 2.95212 5.43337 2.71166 5.4331ZM13.2928 5.4331C13.0523 5.43337 12.8218 5.52902 12.6518 5.69905C12.4817 5.86908 12.3861 6.09961 12.3858 6.34008V10.119C12.3855 10.2384 12.4087 10.3566 12.4541 10.4669C12.4996 10.5772 12.5663 10.6775 12.6506 10.762C12.7348 10.8464 12.8349 10.9135 12.9451 10.9592C13.0553 11.0049 13.1735 11.0285 13.2928 11.0285C13.4121 11.0285 13.5302 11.0049 13.6404 10.9592C13.7506 10.9135 13.8507 10.8464 13.935 10.762C14.0192 10.6775 14.086 10.5772 14.1314 10.4669C14.1769 10.3566 14.2001 10.2384 14.1998 10.119V6.34008C14.1995 6.09962 14.1038 5.86908 13.9338 5.69905C13.7638 5.52902 13.5332 5.43338 13.2928 5.4331Z" fill="white" style="fill:white;fill-opacity:1;"/>
</svg>
