<svg width="15" height="17" viewBox="0 0 15 17" fill="none" xmlns="http://www.w3.org/2000/svg">
<path d="M9.79111 2.65833C10.1062 2.29523 10.3464 1.87348 10.498 1.41728C10.6495 0.961086 10.7095 0.47944 10.6744 0C9.70726 0.0780725 8.80945 0.532963 8.17445 1.26667C7.87036 1.61831 7.63993 2.0274 7.49679 2.4697C7.35365 2.91201 7.30071 3.37854 7.34111 3.84167C7.8129 3.8456 8.27927 3.74091 8.70411 3.53572C9.12896 3.33052 9.50089 3.03031 9.79111 2.65833ZM11.8911 8.85833C11.8967 8.21978 12.0649 7.59318 12.3798 7.03767C12.6948 6.48216 13.1461 6.01605 13.6911 5.68333C13.3471 5.1877 12.8924 4.77903 12.363 4.48973C11.8336 4.20043 11.244 4.03846 10.6411 4.01667C9.34111 3.88333 8.14111 4.775 7.44945 4.775C6.75778 4.775 5.78278 4.03333 4.69945 4.05C3.99122 4.07333 3.30113 4.27982 2.69649 4.64932C2.09184 5.01883 1.59329 5.53873 1.24945 6.15833C-0.21722 8.70833 0.874446 12.5 2.34111 14.5583C3.00778 15.5667 3.84111 16.7083 4.94111 16.6667C6.04111 16.625 6.39945 15.9833 7.67445 15.9833C8.94945 15.9833 9.34111 16.6667 10.4244 16.6417C11.5078 16.6167 12.2744 15.6083 12.9744 14.6C13.4703 13.8679 13.8577 13.068 14.1244 12.225C13.464 11.9433 12.9005 11.4744 12.5036 10.8761C12.1067 10.2778 11.8938 9.57631 11.8911 8.85833Z" fill="white" style="fill:white;fill-opacity:1;"/>
</svg>
