<svg xmlns="http://www.w3.org/2000/svg" width="15" height="14" viewBox="0 0 15 14" fill="none">
<path d="M6 8.25H9C9.19891 8.25 9.38968 8.17098 9.53033 8.03033C9.67098 7.88968 9.75 7.69891 9.75 7.5C9.75 7.30109 9.67098 7.11032 9.53033 6.96967C9.38968 6.82902 9.19891 6.75 9 6.75H6C5.80109 6.75 5.61032 6.82902 5.46967 6.96967C5.32902 7.11032 5.25 7.30109 5.25 7.5C5.25 7.69891 5.32902 7.88968 5.46967 8.03033C5.61032 8.17098 5.80109 8.25 6 8.25ZM12.75 0H2.25C1.65326 0 1.08097 0.237053 0.65901 0.65901C0.237053 1.08097 0 1.65326 0 2.25V4.5C0 4.69891 0.0790176 4.88968 0.21967 5.03033C0.360322 5.17098 0.551088 5.25 0.75 5.25H1.5V11.25C1.5 11.8467 1.73705 12.419 2.15901 12.841C2.58097 13.2629 3.15326 13.5 3.75 13.5H11.25C11.8467 13.5 12.419 13.2629 12.841 12.841C13.2629 12.419 13.5 11.8467 13.5 11.25V5.25H14.25C14.4489 5.25 14.6397 5.17098 14.7803 5.03033C14.921 4.88968 15 4.69891 15 4.5V2.25C15 1.65326 14.7629 1.08097 14.341 0.65901C13.919 0.237053 13.3467 0 12.75 0ZM12 11.25C12 11.4489 11.921 11.6397 11.7803 11.7803C11.6397 11.921 11.4489 12 11.25 12H3.75C3.55109 12 3.36032 11.921 3.21967 11.7803C3.07902 11.6397 3 11.4489 3 11.25V5.25H12V11.25ZM13.5 3.75H1.5V2.25C1.5 2.05109 1.57902 1.86032 1.71967 1.71967C1.86032 1.57902 2.05109 1.5 2.25 1.5H12.75C12.9489 1.5 13.1397 1.57902 13.2803 1.71967C13.421 1.86032 13.5 2.05109 13.5 2.25V3.75Z" fill="white" style="fill:white;fill-opacity:1;"/>
</svg>