<svg xmlns="http://www.w3.org/2000/svg" width="21" height="21" viewBox="0 0 21 21" fill="none">
<path d="M15.3353 11.0007L10.1853 16.1591C9.51012 16.7591 8.63123 17.0785 7.72837 17.0519C6.82552 17.0253 5.96694 16.6548 5.32825 16.0161C4.68956 15.3774 4.31903 14.5188 4.29245 13.616C4.26588 12.7131 4.58526 11.8342 5.18527 11.1591L11.8519 4.4924C12.25 4.11431 12.778 3.90351 13.3269 3.90351C13.8759 3.90351 14.4039 4.11431 14.8019 4.4924C15.1897 4.88539 15.4072 5.41529 15.4072 5.9674C15.4072 6.51951 15.1897 7.0494 14.8019 7.4424L9.05194 13.1841C8.99503 13.2453 8.92661 13.2948 8.85059 13.3297C8.77456 13.3645 8.69242 13.384 8.60884 13.3871C8.52527 13.3902 8.44191 13.3768 8.36351 13.3477C8.28512 13.3186 8.21322 13.2743 8.15194 13.2174C8.09066 13.1605 8.04118 13.0921 8.00634 13.016C7.9715 12.94 7.95197 12.8579 7.94888 12.7743C7.94578 12.6907 7.95918 12.6074 7.9883 12.529C8.01742 12.4506 8.0617 12.3787 8.11861 12.3174L12.3936 8.05073C12.5505 7.89381 12.6387 7.68098 12.6387 7.45906C12.6387 7.23715 12.5505 7.02432 12.3936 6.8674C12.2367 6.71048 12.0239 6.62232 11.8019 6.62232C11.58 6.62232 11.3672 6.71048 11.2103 6.8674L6.93527 11.1507C6.72136 11.363 6.55158 11.6155 6.43572 11.8937C6.31985 12.1718 6.2602 12.4702 6.2602 12.7716C6.2602 13.0729 6.31985 13.3713 6.43572 13.6495C6.55158 13.9276 6.72136 14.1801 6.93527 14.3924C7.37225 14.8086 7.95261 15.0408 8.55611 15.0408C9.1596 15.0408 9.73996 14.8086 10.1769 14.3924L15.9186 8.6424C16.581 7.93152 16.9416 6.99129 16.9245 6.01978C16.9073 5.04828 16.5138 4.12135 15.8267 3.43429C15.1397 2.74722 14.2127 2.35366 13.2412 2.33652C12.2697 2.31938 11.3295 2.68 10.6186 3.3424L3.95194 10.0091C3.05294 11.0048 2.5728 12.3089 2.61155 13.6499C2.65031 14.9908 3.20497 16.2651 4.15997 17.2072C5.11498 18.1493 6.39667 18.6866 7.73801 18.7071C9.07935 18.7277 10.3769 18.2298 11.3603 17.3174L16.5186 12.1674C16.5963 12.0897 16.6579 11.9975 16.7 11.8959C16.742 11.7944 16.7637 11.6856 16.7637 11.5757C16.7637 11.4658 16.742 11.357 16.7 11.2555C16.6579 11.154 16.5963 11.0618 16.5186 10.9841C16.4409 10.9064 16.3487 10.8447 16.2471 10.8027C16.1456 10.7606 16.0368 10.739 15.9269 10.739C15.8171 10.739 15.7083 10.7606 15.6067 10.8027C15.5052 10.8447 15.413 10.9064 15.3353 10.9841V11.0007Z" fill="white" fill-opacity="0.6" style="fill:white;fill-opacity:0.6;"/>
</svg>