<svg width="20" height="20" viewBox="0 0 20 20" fill="none" xmlns="http://www.w3.org/2000/svg">
<path d="M15.0696 10.3484L9.91965 15.5067C9.24449 16.1067 8.3656 16.4261 7.46275 16.3995C6.5599 16.373 5.70132 16.0024 5.06263 15.3637C4.42394 14.7251 4.05341 13.8665 4.02683 12.9636C4.00025 12.0608 4.31963 11.1819 4.91965 10.5067L11.5863 3.84005C11.9843 3.46197 12.5123 3.25116 13.0613 3.25116C13.6103 3.25116 14.1383 3.46197 14.5363 3.84005C14.9241 4.23304 15.1415 4.76294 15.1415 5.31505C15.1415 5.86716 14.9241 6.39706 14.5363 6.79005L8.78631 12.5317C8.72941 12.593 8.66099 12.6425 8.58496 12.6773C8.50894 12.7122 8.42679 12.7317 8.34322 12.7348C8.25965 12.7379 8.17628 12.7245 8.09789 12.6954C8.01949 12.6662 7.9476 12.622 7.88631 12.5651C7.82503 12.5081 7.77556 12.4397 7.74072 12.3637C7.70587 12.2877 7.68635 12.2055 7.68325 12.122C7.68016 12.0384 7.69355 11.955 7.72267 11.8766C7.7518 11.7982 7.79608 11.7263 7.85298 11.6651L12.128 7.39839C12.2849 7.24147 12.3731 7.02864 12.3731 6.80672C12.3731 6.5848 12.2849 6.37197 12.128 6.21505C11.9711 6.05813 11.7582 5.96998 11.5363 5.96998C11.3144 5.96998 11.1016 6.05813 10.9446 6.21505L6.66965 10.4984C6.45574 10.7106 6.28595 10.9631 6.17009 11.2413C6.05423 11.5195 5.99458 11.8179 5.99458 12.1192C5.99458 12.4206 6.05423 12.7189 6.17009 12.9971C6.28595 13.2753 6.45574 13.5278 6.66965 13.7401C7.10663 14.1563 7.68699 14.3885 8.29048 14.3885C8.89397 14.3885 9.47434 14.1563 9.91132 13.7401L15.653 7.99005C16.3154 7.27918 16.676 6.33895 16.6589 5.36744C16.6417 4.39593 16.2482 3.46901 15.5611 2.78194C14.874 2.09488 13.9471 1.70132 12.9756 1.68418C12.0041 1.66704 11.0639 2.02765 10.353 2.69005L3.68631 9.35672C2.78731 10.3524 2.30717 11.6566 2.34593 12.9975C2.38468 14.3385 2.93934 15.6127 3.89435 16.5549C4.84935 17.497 6.13105 18.0343 7.47239 18.0548C8.81373 18.0753 10.1113 17.5775 11.0946 16.6651L16.253 11.5151C16.3307 11.4374 16.3923 11.3451 16.4344 11.2436C16.4764 11.1421 16.4981 11.0333 16.4981 10.9234C16.4981 10.8135 16.4764 10.7047 16.4344 10.6032C16.3923 10.5017 16.3307 10.4094 16.253 10.3317C16.1753 10.254 16.083 10.1924 15.9815 10.1503C15.88 10.1083 15.7712 10.0866 15.6613 10.0866C15.5514 10.0866 15.4426 10.1083 15.3411 10.1503C15.2396 10.1924 15.1473 10.254 15.0696 10.3317V10.3484Z" fill="#9D9D9D" style="fill:#9D9D9D;fill:color(display-p3 0.6157 0.6157 0.6157);fill-opacity:1;"/>
</svg>
