<svg width="44" height="44" viewBox="0 0 44 44" fill="none" xmlns="http://www.w3.org/2000/svg">
<path d="M22.6669 4.60983L38.5558 10.9653C39.1737 11.2125 39.668 11.954 39.668 12.6072V18.4684C39.668 19.4394 38.8736 20.2339 37.9026 20.2339H6.12481C5.15382 20.2339 4.35938 19.4394 4.35938 18.4684V12.6072C4.35938 11.954 4.8537 11.2125 5.47161 10.9653L21.3605 4.60983C21.7136 4.4686 22.3138 4.4686 22.6669 4.60983Z" stroke="#B0D3FF" style="stroke:#B0D3FF;stroke:color(display-p3 0.6913 0.8289 1.0000);stroke-opacity:1;" stroke-width="2.64815" stroke-miterlimit="10" stroke-linecap="round" stroke-linejoin="round"/>
<path d="M39.668 39.6516H4.35938V34.3553C4.35938 33.3843 5.15382 32.5898 6.12481 32.5898H37.9026C38.8736 32.5898 39.668 33.3843 39.668 34.3553V39.6516Z" stroke="#B0D3FF" style="stroke:#B0D3FF;stroke:color(display-p3 0.6913 0.8289 1.0000);stroke-opacity:1;" stroke-width="2.64815" stroke-miterlimit="10" stroke-linecap="round" stroke-linejoin="round"/>
<path d="M7.86719 32.5846V20.2266" stroke="#B0D3FF" style="stroke:#B0D3FF;stroke:color(display-p3 0.6913 0.8289 1.0000);stroke-opacity:1;" stroke-width="2.64815" stroke-miterlimit="10" stroke-linecap="round" stroke-linejoin="round"/>
<path d="M14.9531 32.5846V20.2266" stroke="#B0D3FF" style="stroke:#B0D3FF;stroke:color(display-p3 0.6913 0.8289 1.0000);stroke-opacity:1;" stroke-width="2.64815" stroke-miterlimit="10" stroke-linecap="round" stroke-linejoin="round"/>
<path d="M22.0078 32.5846V20.2266" stroke="#B0D3FF" style="stroke:#B0D3FF;stroke:color(display-p3 0.6913 0.8289 1.0000);stroke-opacity:1;" stroke-width="2.64815" stroke-miterlimit="10" stroke-linecap="round" stroke-linejoin="round"/>
<path d="M29.0547 32.5846V20.2266" stroke="#B0D3FF" style="stroke:#B0D3FF;stroke:color(display-p3 0.6913 0.8289 1.0000);stroke-opacity:1;" stroke-width="2.64815" stroke-miterlimit="10" stroke-linecap="round" stroke-linejoin="round"/>
<path d="M36.1406 32.5846V20.2266" stroke="#B0D3FF" style="stroke:#B0D3FF;stroke:color(display-p3 0.6913 0.8289 1.0000);stroke-opacity:1;" stroke-width="2.64815" stroke-miterlimit="10" stroke-linecap="round" stroke-linejoin="round"/>
<path d="M2.57812 39.6562H41.4176" stroke="#B0D3FF" style="stroke:#B0D3FF;stroke:color(display-p3 0.6913 0.8289 1.0000);stroke-opacity:1;" stroke-width="2.64815" stroke-miterlimit="10" stroke-linecap="round" stroke-linejoin="round"/>
<path d="M22.0075 15.8236C23.4701 15.8236 24.6557 14.638 24.6557 13.1755C24.6557 11.713 23.4701 10.5273 22.0075 10.5273C20.545 10.5273 19.3594 11.713 19.3594 13.1755C19.3594 14.638 20.545 15.8236 22.0075 15.8236Z" stroke="#B0D3FF" style="stroke:#B0D3FF;stroke:color(display-p3 0.6913 0.8289 1.0000);stroke-opacity:1;" stroke-width="2.64815" stroke-miterlimit="10" stroke-linecap="round" stroke-linejoin="round"/>
</svg>
