<svg width="70" height="70" viewBox="0 0 70 70" fill="none" xmlns="http://www.w3.org/2000/svg">
<rect x="0.1875" width="69.0252" height="69.0252" rx="11.5042" fill="#245139" style="fill:#245139;fill:color(display-p3 0.1412 0.3176 0.2235);fill-opacity:1;"/>
<path d="M24.7284 16.7812H44.6863C46.0612 16.7812 47.2809 16.8256 48.3675 16.9808C54.1996 17.6239 55.7741 20.3737 55.7741 27.869V41.1743C55.7741 48.6696 54.1996 51.4194 48.3675 52.0625C47.2809 52.2177 46.0612 52.2621 44.6863 52.2621H24.7284C23.3535 52.2621 22.1338 52.2177 21.0472 52.0625C15.2151 51.4194 13.6406 48.6696 13.6406 41.1743V27.869C13.6406 20.3737 15.2151 17.6239 21.0472 16.9808C22.1338 16.8256 23.3535 16.7812 24.7284 16.7812Z" stroke="white" style="stroke:white;stroke-opacity:1;" stroke-width="3.24247" stroke-linecap="round" stroke-linejoin="round"/>
<path d="M38.0312 30.0859H45.7927" stroke="white" style="stroke:white;stroke-opacity:1;" stroke-width="3.24247" stroke-linecap="round" stroke-linejoin="round"/>
<path d="M23.6172 42.2852H23.6615H45.7927" stroke="white" style="stroke:white;stroke-opacity:1;" stroke-width="3.24247" stroke-linecap="round" stroke-linejoin="round"/>
<path d="M30.4794 30.0853H30.4993" stroke="white" style="stroke:white;stroke-opacity:1;" stroke-width="4.32329" stroke-linecap="round" stroke-linejoin="round"/>
<path d="M23.8232 30.0853H23.8431" stroke="white" style="stroke:white;stroke-opacity:1;" stroke-width="4.32329" stroke-linecap="round" stroke-linejoin="round"/>
</svg>
