<svg width="21" height="22" viewBox="0 0 21 22" fill="none" xmlns="http://www.w3.org/2000/svg">
<path d="M15.875 7.58594C15.875 6.2267 15.335 4.92314 14.3739 3.96202C13.4128 3.00089 12.1092 2.46094 10.75 2.46094C9.39077 2.46094 8.0872 3.00089 7.12608 3.96202C6.16495 4.92314 5.625 6.2267 5.625 7.58594C5.625 13.5651 3.0625 15.2734 3.0625 15.2734H18.4375C18.4375 15.2734 15.875 13.5651 15.875 7.58594Z" stroke="#9D9D9D" style="stroke:#9D9D9D;stroke:color(display-p3 0.6157 0.6157 0.6157);stroke-opacity:1;" stroke-width="2" stroke-linecap="round" stroke-linejoin="round"/>
<path d="M12.2289 18.6875C12.0787 18.9464 11.8631 19.1613 11.6038 19.3106C11.3445 19.46 11.0504 19.5386 10.7511 19.5386C10.4519 19.5386 10.1578 19.46 9.89849 19.3106C9.63915 19.1613 9.42361 18.9464 9.27344 18.6875" stroke="#9D9D9D" style="stroke:#9D9D9D;stroke:color(display-p3 0.6157 0.6157 0.6157);stroke-opacity:1;" stroke-width="2" stroke-linecap="round" stroke-linejoin="round"/>
</svg>
