<svg width="16" height="16" viewBox="0 0 16 16" fill="none" xmlns="http://www.w3.org/2000/svg">
<path d="M4.51937 12.3898C4.28608 12.3898 4.05279 12.3038 3.86862 12.1197C3.51254 11.7636 3.51254 11.1742 3.86862 10.8182L10.8182 3.86862C11.1742 3.51254 11.7636 3.51254 12.1197 3.86862C12.4757 4.22469 12.4757 4.81405 12.1197 5.17012L5.17012 12.1197C4.99822 12.3038 4.75266 12.3898 4.51937 12.3898Z" fill="white" style="fill:white;fill-opacity:1;"/>
<path d="M11.4689 12.3898C11.2356 12.3898 11.0023 12.3038 10.8182 12.1197L3.86862 5.17012C3.51254 4.81405 3.51254 4.22469 3.86862 3.86862C4.22469 3.51254 4.81405 3.51254 5.17012 3.86862L12.1197 10.8182C12.4757 11.1742 12.4757 11.7636 12.1197 12.1197C11.9355 12.3038 11.7022 12.3898 11.4689 12.3898Z" fill="white" style="fill:white;fill-opacity:1;"/>
</svg>
