<svg width="242" height="240" viewBox="0 0 242 240" fill="none" xmlns="http://www.w3.org/2000/svg">
<g filter="url(#filter0_f_5448_23776)">
<ellipse cx="121" cy="120" rx="57" ry="56" fill="#5AFF99" fill-opacity="0.2" style="fill:#5AFF99;fill:color(display-p3 0.3525 1.0000 0.6007);fill-opacity:0.2;"/>
</g>
<g filter="url(#filter1_i_5448_23776)">
<rect x="72.6641" y="70.2773" width="98.1102" height="98.1102" rx="16.0002" fill="#237248" style="fill:#237248;fill:color(display-p3 0.1362 0.4487 0.2827);fill-opacity:1;"/>
<path d="M108.528 103.6H132.82M108.528 115.438H132.82M108.528 127.275H132.82M97 145.598V97.565C97 93.4624 100.932 90.1367 105.784 90.1367H135.703C140.553 90.1367 144.485 93.4624 144.485 97.565V145.608C144.485 146.051 143.92 146.33 143.464 146.112L133.356 141.302C133.15 141.204 132.901 141.202 132.694 141.297L121.401 146.455C121.203 146.546 120.967 146.548 120.766 146.463L108.583 141.284C108.377 141.197 108.134 141.202 107.934 141.3L98.0279 146.101C97.5698 146.324 97 146.043 97 145.598Z" stroke="white" style="stroke:white;stroke-opacity:1;" stroke-width="4.00006" stroke-linecap="round"/>
</g>
<defs>
<filter id="filter0_f_5448_23776" x="0" y="0" width="242" height="240" filterUnits="userSpaceOnUse" color-interpolation-filters="sRGB">
<feFlood flood-opacity="0" result="BackgroundImageFix"/>
<feBlend mode="normal" in="SourceGraphic" in2="BackgroundImageFix" result="shape"/>
<feGaussianBlur stdDeviation="32" result="effect1_foregroundBlur_5448_23776"/>
</filter>
<filter id="filter1_i_5448_23776" x="72.6641" y="70.2773" width="98.1094" height="102.109" filterUnits="userSpaceOnUse" color-interpolation-filters="sRGB">
<feFlood flood-opacity="0" result="BackgroundImageFix"/>
<feBlend mode="normal" in="SourceGraphic" in2="BackgroundImageFix" result="shape"/>
<feColorMatrix in="SourceAlpha" type="matrix" values="0 0 0 0 0 0 0 0 0 0 0 0 0 0 0 0 0 0 127 0" result="hardAlpha"/>
<feMorphology radius="2" operator="erode" in="SourceAlpha" result="effect1_innerShadow_5448_23776"/>
<feOffset dy="4"/>
<feGaussianBlur stdDeviation="10"/>
<feComposite in2="hardAlpha" operator="arithmetic" k2="-1" k3="1"/>
<feColorMatrix type="matrix" values="0 0 0 0 0 0 0 0 0 0 0 0 0 0 0 0 0 0 0.25 0"/>
<feBlend mode="normal" in2="shape" result="effect1_innerShadow_5448_23776"/>
</filter>
</defs>
</svg>
