<svg width="21" height="21" viewBox="0 0 21 21" fill="none" xmlns="http://www.w3.org/2000/svg">
<path d="M12.9749 10.9608V13.6861C12.9749 15.9571 12.0665 16.8656 9.79543 16.8656H7.07014C4.79906 16.8656 3.89062 15.9571 3.89062 13.6861V10.9608C3.89062 8.68968 4.79906 7.78125 7.07014 7.78125H9.79543C12.0665 7.78125 12.9749 8.68968 12.9749 10.9608Z" stroke="white" style="stroke:white;stroke-opacity:1;" stroke-width="1.34739" stroke-linecap="round" stroke-linejoin="round"/>
<path d="M16.8656 7.07014V9.79543C16.8656 12.0665 15.9571 12.9749 13.6861 12.9749H12.9723V10.9634C12.9723 8.69234 12.0639 7.78391 9.79278 7.78391H7.78125V7.07014C7.78125 4.79906 8.68968 3.89062 10.9608 3.89062H13.6861C15.9571 3.89062 16.8656 4.79906 16.8656 7.07014Z" stroke="white" style="stroke:white;stroke-opacity:1;" stroke-width="1.34739" stroke-linecap="round" stroke-linejoin="round"/>
</svg>
