<svg width="20" height="20" viewBox="0 0 20 20" fill="none" xmlns="http://www.w3.org/2000/svg">
<path d="M8.99702 18.4154C8.75536 18.4154 8.51369 18.3737 8.28869 18.2904C7.24702 17.9487 6.58036 16.7987 6.81369 15.732L7.22202 13.107C7.23035 13.0487 7.23035 12.9654 7.17202 12.8987C7.13035 12.857 7.07202 12.832 7.00535 12.832H3.67202C2.85535 12.832 2.14702 12.4904 1.73035 11.8987C1.32202 11.3237 1.23869 10.5654 1.50535 9.83203L3.49702 3.76536C3.80535 2.55703 5.09702 1.58203 6.43035 1.58203H9.59702C10.0637 1.58203 11.0804 1.7237 11.622 2.26536L14.147 4.21536L13.3804 5.20703L10.797 3.20703C10.5887 2.9987 10.0637 2.83203 9.59702 2.83203H6.43035C5.68035 2.83203 4.87202 3.43203 4.70535 4.10703L2.68869 10.232C2.55535 10.5987 2.58035 10.932 2.75535 11.1737C2.93869 11.432 3.27202 11.582 3.68035 11.582H7.01369C7.44702 11.582 7.84702 11.7654 8.12202 12.082C8.40535 12.407 8.53035 12.8404 8.46369 13.2904L8.04702 15.9654C7.94702 16.432 8.26369 16.957 8.71369 17.107C9.11369 17.257 9.64702 17.0404 9.83036 16.7737L13.247 11.6904L14.2804 12.3904L10.8637 17.4737C10.472 18.057 9.73036 18.4154 8.99702 18.4154Z" fill="white" style="fill:white;fill-opacity:1;"/>
<path d="M16.3516 15.0833H15.5182C13.9766 15.0833 13.2266 14.3583 13.2266 12.875V4.70833C13.2266 3.225 13.9766 2.5 15.5182 2.5H16.3516C17.8932 2.5 18.6432 3.225 18.6432 4.70833V12.875C18.6432 14.3583 17.8932 15.0833 16.3516 15.0833ZM15.5182 3.75C14.6099 3.75 14.4766 3.96667 14.4766 4.70833V12.875C14.4766 13.6167 14.6099 13.8333 15.5182 13.8333H16.3516C17.2599 13.8333 17.3932 13.6167 17.3932 12.875V4.70833C17.3932 3.96667 17.2599 3.75 16.3516 3.75H15.5182Z" fill="white" style="fill:white;fill-opacity:1;"/>
</svg>
