<svg width="16" height="16" viewBox="0 0 16 16" fill="none" xmlns="http://www.w3.org/2000/svg">
<path d="M12.2226 1.60274H12.8494C14.009 1.60274 14.5731 2.14806 14.5731 3.26379L14.5731 9.40654C14.5731 10.5223 14.009 11.0676 12.8494 11.0676H12.2226C11.063 11.0676 10.4989 10.5223 10.4989 9.40654V3.26379C10.4989 2.14806 11.063 1.60274 12.2226 1.60274Z" fill="#48C884" style="fill:#48C884;fill:color(display-p3 0.2824 0.7843 0.5176);fill-opacity:1;"/>
<path d="M5.39326 0.910258L7.77514 0.910258C8.12615 0.910258 8.89086 1.01682 9.29829 1.42424L11.1001 2.81576L11.1975 2.89098L11.1063 3.00902L11.2978 9.04L8.72789 12.8635C8.333 13.4527 7.468 13.7348 6.79104 13.4778C6.00753 13.2208 5.50608 12.3558 5.68159 11.5535L5.98873 9.57906C5.99499 9.53518 5.99499 9.4725 5.95112 9.42235C5.91978 9.39101 5.8759 9.37221 5.82575 9.37221L3.31851 9.37221C2.70424 9.37221 2.17145 9.11522 1.85804 8.67018C1.5509 8.23768 1.48822 7.66728 1.6888 7.11569L3.18688 2.5525C3.4188 1.64363 4.38409 0.910258 5.39326 0.910258Z" fill="#48C884" style="fill:#48C884;fill:color(display-p3 0.2824 0.7843 0.5176);fill-opacity:1;"/>
</svg>
