<svg xmlns="http://www.w3.org/2000/svg" width="20" height="20" viewBox="0 0 20 20" fill="none">
<path d="M7.4974 10.8307C7.95763 10.8307 8.33073 10.4576 8.33073 9.9974C8.33073 9.53716 7.95763 9.16406 7.4974 9.16406C7.03716 9.16406 6.66406 9.53716 6.66406 9.9974C6.66406 10.4576 7.03716 10.8307 7.4974 10.8307Z" stroke="#989898" style="stroke:#989898;stroke:color(display-p3 0.5971 0.5971 0.5971);stroke-opacity:1;" stroke-width="1.66667" stroke-linecap="round" stroke-linejoin="round"/>
<path d="M7.4974 5.0026C7.95763 5.0026 8.33073 4.62951 8.33073 4.16927C8.33073 3.70903 7.95763 3.33594 7.4974 3.33594C7.03716 3.33594 6.66406 3.70903 6.66406 4.16927C6.66406 4.62951 7.03716 5.0026 7.4974 5.0026Z" stroke="#989898" style="stroke:#989898;stroke:color(display-p3 0.5971 0.5971 0.5971);stroke-opacity:1;" stroke-width="1.66667" stroke-linecap="round" stroke-linejoin="round"/>
<path d="M7.4974 16.6667C7.95763 16.6667 8.33073 16.2936 8.33073 15.8333C8.33073 15.3731 7.95763 15 7.4974 15C7.03716 15 6.66406 15.3731 6.66406 15.8333C6.66406 16.2936 7.03716 16.6667 7.4974 16.6667Z" stroke="#989898" style="stroke:#989898;stroke:color(display-p3 0.5971 0.5971 0.5971);stroke-opacity:1;" stroke-width="1.66667" stroke-linecap="round" stroke-linejoin="round"/>
<path d="M12.4974 10.8307C12.9576 10.8307 13.3307 10.4576 13.3307 9.9974C13.3307 9.53716 12.9576 9.16406 12.4974 9.16406C12.0372 9.16406 11.6641 9.53716 11.6641 9.9974C11.6641 10.4576 12.0372 10.8307 12.4974 10.8307Z" stroke="#989898" style="stroke:#989898;stroke:color(display-p3 0.5971 0.5971 0.5971);stroke-opacity:1;" stroke-width="1.66667" stroke-linecap="round" stroke-linejoin="round"/>
<path d="M12.4974 5.0026C12.9576 5.0026 13.3307 4.62951 13.3307 4.16927C13.3307 3.70903 12.9576 3.33594 12.4974 3.33594C12.0372 3.33594 11.6641 3.70903 11.6641 4.16927C11.6641 4.62951 12.0372 5.0026 12.4974 5.0026Z" stroke="#989898" style="stroke:#989898;stroke:color(display-p3 0.5971 0.5971 0.5971);stroke-opacity:1;" stroke-width="1.66667" stroke-linecap="round" stroke-linejoin="round"/>
<path d="M12.4974 16.6667C12.9576 16.6667 13.3307 16.2936 13.3307 15.8333C13.3307 15.3731 12.9576 15 12.4974 15C12.0372 15 11.6641 15.3731 11.6641 15.8333C11.6641 16.2936 12.0372 16.6667 12.4974 16.6667Z" stroke="#989898" style="stroke:#989898;stroke:color(display-p3 0.5971 0.5971 0.5971);stroke-opacity:1;" stroke-width="1.66667" stroke-linecap="round" stroke-linejoin="round"/>
</svg>