<svg width="18" height="18" viewBox="0 0 18 18" fill="none" xmlns="http://www.w3.org/2000/svg">
<path d="M8.25 1.5H6.75C3 1.5 1.5 3 1.5 6.75V11.25C1.5 15 3 16.5 6.75 16.5H11.25C15 16.5 16.5 15 16.5 11.25V9.75" stroke="#9D9D9D" style="stroke:#9D9D9D;stroke:color(display-p3 0.6157 0.6157 0.6157);stroke-opacity:1;" stroke-width="1.125" stroke-linecap="round" stroke-linejoin="round"/>
<path d="M12.0245 2.26592L6.11454 8.17592C5.88954 8.40092 5.66454 8.84342 5.61954 9.16592L5.29704 11.4234C5.17704 12.2409 5.75454 12.8109 6.57204 12.6984L8.82954 12.3759C9.14454 12.3309 9.58704 12.1059 9.81954 11.8809L15.7295 5.97092C16.7495 4.95092 17.2295 3.76592 15.7295 2.26592C14.2295 0.765922 13.0445 1.24592 12.0245 2.26592Z" stroke="#9D9D9D" style="stroke:#9D9D9D;stroke:color(display-p3 0.6157 0.6157 0.6157);stroke-opacity:1;" stroke-width="1.125" stroke-miterlimit="10" stroke-linecap="round" stroke-linejoin="round"/>
<path d="M11.1797 3.11328C11.6822 4.90578 13.0847 6.30828 14.8847 6.81828" stroke="#9D9D9D" style="stroke:#9D9D9D;stroke:color(display-p3 0.6157 0.6157 0.6157);stroke-opacity:1;" stroke-width="1.125" stroke-miterlimit="10" stroke-linecap="round" stroke-linejoin="round"/>
</svg>
