<svg width="20" height="20" viewBox="0 0 20 20" fill="none" xmlns="http://www.w3.org/2000/svg">
<path d="M12.9823 9.99896C12.9823 11.649 11.649 12.9823 9.99896 12.9823C8.34896 12.9823 7.01562 11.649 7.01562 9.99896C7.01562 8.34896 8.34896 7.01562 9.99896 7.01562C11.649 7.01562 12.9823 8.34896 12.9823 9.99896Z" stroke="#4E4E4E" style="stroke:#4E4E4E;stroke:color(display-p3 0.3067 0.3067 0.3067);stroke-opacity:1;" stroke-width="1.5" stroke-linecap="round" stroke-linejoin="round"/>
<path d="M9.99792 16.8932C12.9396 16.8932 15.6813 15.1599 17.5896 12.1599C18.3396 10.9849 18.3396 9.0099 17.5896 7.8349C15.6813 4.8349 12.9396 3.10156 9.99792 3.10156C7.05625 3.10156 4.31458 4.8349 2.40625 7.8349C1.65625 9.0099 1.65625 10.9849 2.40625 12.1599C4.31458 15.1599 7.05625 16.8932 9.99792 16.8932Z" stroke="#4E4E4E" style="stroke:#4E4E4E;stroke:color(display-p3 0.3067 0.3067 0.3067);stroke-opacity:1;" stroke-width="1.5" stroke-linecap="round" stroke-linejoin="round"/>
</svg>
