<svg width="70" height="70" viewBox="0 0 70 70" fill="none" xmlns="http://www.w3.org/2000/svg">
<rect x="0.1875" y="0.0234375" width="69.14" height="69.14" rx="11.5233" fill="#245139" style="fill:#245139;fill:color(display-p3 0.1412 0.3176 0.2235);fill-opacity:1;"/>
<path d="M50.0212 22.9266L43.6644 16.5699C41.718 14.6235 39.0884 13.5469 36.3345 13.5469H26.1264C19.9146 13.5469 15.7734 17.6881 15.7734 23.8999V44.6058C15.7734 50.8176 19.9146 54.9588 26.1264 54.9588H42.6912C48.903 54.9588 53.0442 50.8176 53.0442 44.6058V30.2566C53.0442 27.482 51.9468 24.8523 50.0212 22.9266Z" stroke="white" style="stroke:white;stroke-opacity:1;" stroke-width="3.14201" stroke-linecap="round" stroke-linejoin="round"/>
<path d="M39.5781 38.375L43.7193 42.5162L39.5781 46.6574" stroke="white" style="stroke:white;stroke-opacity:1;" stroke-width="3.14201" stroke-linecap="round" stroke-linejoin="round"/>
<rect x="26.7879" y="30.9324" width="32.3178" height="16.8771" rx="3.94996" fill="#245139" stroke="white" style="fill:#245139;fill:color(display-p3 0.1412 0.3176 0.2235);fill-opacity:1;stroke:white;stroke-opacity:1;" stroke-width="2.8727"/>
<rect x="34.1172" y="35.2461" width="18.7471" height="9.05032" fill="#245139" style="fill:#245139;fill:color(display-p3 0.1412 0.3176 0.2235);fill-opacity:1;"/>
<path d="M34.2318 43.5238C33.984 43.5238 33.7948 43.4553 33.6644 43.3183C33.534 43.1814 33.4688 42.989 33.4688 42.7412V37.3119C33.4688 37.0575 33.534 36.8651 33.6644 36.7347C33.8014 36.6043 33.9937 36.5391 34.2416 36.5391H36.6187C37.3883 36.5391 37.9817 36.7347 38.3991 37.126C38.8165 37.5108 39.0252 38.0488 39.0252 38.7401C39.0252 39.4314 38.8165 39.9727 38.3991 40.364C37.9817 40.7553 37.3883 40.951 36.6187 40.951H34.985V42.7412C34.985 42.989 34.9198 43.1814 34.7894 43.3183C34.6655 43.4553 34.4796 43.5238 34.2318 43.5238ZM34.985 39.7771H36.3644C36.7557 39.7771 37.0524 39.689 37.2546 39.5129C37.4633 39.3369 37.5676 39.0792 37.5676 38.7401C37.5676 38.401 37.4633 38.1467 37.2546 37.9771C37.0524 37.8075 36.7557 37.7227 36.3644 37.7227H34.985V39.7771Z" fill="white" style="fill:white;fill-opacity:1;"/>
<path d="M41.0508 43.4357C40.7964 43.4357 40.6008 43.3672 40.4638 43.2303C40.3269 43.0933 40.2584 42.8977 40.2584 42.6433V37.3314C40.2584 37.0771 40.3269 36.8814 40.4638 36.7445C40.6008 36.6075 40.7964 36.5391 41.0508 36.5391H42.9584C44.1388 36.5391 45.0486 36.8391 45.6877 37.4391C46.3333 38.0325 46.6562 38.8803 46.6562 39.9825C46.6562 40.5368 46.5714 41.0292 46.4018 41.4597C46.2388 41.8836 46.0007 42.2423 45.6877 42.5357C45.3746 42.8292 44.9899 43.0542 44.5334 43.2107C44.0768 43.3607 43.5518 43.4357 42.9584 43.4357H41.0508ZM41.7747 42.1933H42.8703C43.2421 42.1933 43.5649 42.1477 43.8388 42.0564C44.1127 41.9651 44.341 41.8281 44.5236 41.6455C44.7062 41.4629 44.8431 41.2347 44.9344 40.9607C45.0257 40.6803 45.0714 40.3542 45.0714 39.9825C45.0714 39.239 44.8855 38.6879 44.5138 38.3293C44.1486 37.964 43.6008 37.7814 42.8703 37.7814H41.7747V42.1933Z" fill="white" style="fill:white;fill-opacity:1;"/>
<path d="M48.9004 43.5238C48.6526 43.5238 48.4602 43.4553 48.3232 43.3183C48.1928 43.1814 48.1276 42.9825 48.1276 42.7216V37.3314C48.1276 37.0771 48.1961 36.8814 48.333 36.7445C48.47 36.6075 48.6656 36.5391 48.92 36.5391H52.2656C52.4612 36.5391 52.608 36.5912 52.7058 36.6956C52.8101 36.7934 52.8623 36.9369 52.8623 37.126C52.8623 37.3217 52.8101 37.4717 52.7058 37.576C52.608 37.6738 52.4612 37.7227 52.2656 37.7227H49.6439V39.4053H52.0504C52.246 39.4053 52.396 39.4575 52.5003 39.5619C52.6047 39.6597 52.6569 39.8032 52.6569 39.9923C52.6569 40.1814 52.6047 40.3281 52.5003 40.4325C52.396 40.5368 52.246 40.589 52.0504 40.589H49.6439V42.7216C49.6439 43.2564 49.396 43.5238 48.9004 43.5238Z" fill="white" style="fill:white;fill-opacity:1;"/>
</svg>
