<svg width="20" height="20" viewBox="0 0 20 20" fill="none" xmlns="http://www.w3.org/2000/svg">
<path d="M10.1983 1.05469C8.02716 1.05478 5.92686 1.82743 4.27324 3.23439C2.61961 4.64135 1.52058 6.59081 1.17279 8.73395C0.824993 10.8771 1.25113 13.0741 2.37496 14.9317C3.49879 16.7894 5.24696 18.1866 7.30669 18.8733C7.76387 18.9534 7.93531 18.679 7.93531 18.439C7.93531 18.2218 7.92387 17.5018 7.92387 16.736C5.62653 17.1589 5.03219 16.176 4.84932 15.6617C4.6464 15.1614 4.32473 14.7181 3.9121 14.3701C3.59207 14.1987 3.13489 13.7758 3.90066 13.7643C4.19306 13.7961 4.4735 13.8978 4.71823 14.061C4.96295 14.2241 5.16474 14.4438 5.3065 14.7015C5.43156 14.9262 5.59972 15.124 5.80134 15.2835C6.00297 15.4431 6.2341 15.5613 6.48148 15.6314C6.72887 15.7014 6.98766 15.722 7.24301 15.6919C7.49836 15.6618 7.74526 15.5816 7.96956 15.4559C8.00915 14.9911 8.21631 14.5564 8.55249 14.233C6.51803 14.0044 4.39214 13.2157 4.39214 9.7183C4.37929 8.80956 4.71462 7.93034 5.32936 7.26095C5.04982 6.47114 5.08253 5.60439 5.42079 4.83789C5.42079 4.83789 6.18655 4.59786 7.93529 5.77511C9.43145 5.36363 11.0109 5.36363 12.5071 5.77511C14.2558 4.58644 15.0216 4.83789 15.0216 4.83789C15.3599 5.60438 15.3926 6.47115 15.113 7.26095C15.7296 7.92919 16.0653 8.80918 16.0503 9.7183C16.0503 13.2271 13.9129 14.0044 11.8785 14.233C12.0967 14.4541 12.2648 14.7197 12.3713 15.0116C12.4777 15.3034 12.5202 15.6148 12.4957 15.9245C12.4957 17.1475 12.4842 18.1304 12.4842 18.439C12.4842 18.6791 12.6557 18.9648 13.1129 18.8734C15.169 18.1811 16.9121 16.7806 18.0311 14.922C19.1502 13.0633 19.5723 10.8675 19.2221 8.72641C18.8719 6.58534 17.7722 4.63842 16.1193 3.23317C14.4664 1.82792 12.3679 1.05582 10.1983 1.05469Z" fill="#B4B4B4" style="fill:#B4B4B4;fill:color(display-p3 0.7059 0.7059 0.7059);fill-opacity:1;"/>
</svg>
