<svg width="23" height="22" viewBox="0 0 23 22" fill="none" xmlns="http://www.w3.org/2000/svg">
<g clip-path="url(#clip0_5467_24298)">
<g clip-path="url(#clip1_5467_24298)">
<path d="M18.5947 11.168C18.5947 10.648 18.548 10.148 18.4614 9.66797H11.5547V12.508H15.5014C15.328 13.4213 14.808 14.1946 14.028 14.7146V16.5613H16.408C17.7947 15.2813 18.5947 13.4013 18.5947 11.168Z" fill="#4285F4" style="fill:#4285F4;fill:color(display-p3 0.2588 0.5216 0.9569);fill-opacity:1;"/>
<path d="M11.5545 18.3318C13.5345 18.3318 15.1945 17.6784 16.4078 16.5584L14.0278 14.7118C13.3745 15.1518 12.5411 15.4184 11.5545 15.4184C9.64781 15.4184 8.02781 14.1318 7.44781 12.3984H5.00781V14.2918C6.21448 16.6851 8.68781 18.3318 11.5545 18.3318Z" fill="#34A853" style="fill:#34A853;fill:color(display-p3 0.2039 0.6588 0.3255);fill-opacity:1;"/>
<path d="M7.44542 12.3948C7.29875 11.9548 7.21208 11.4882 7.21208 11.0015C7.21208 10.5148 7.29875 10.0482 7.44542 9.60818V7.71484H5.00542C4.50542 8.70151 4.21875 9.81484 4.21875 11.0015C4.21875 12.1882 4.50542 13.3015 5.00542 14.2882L6.90542 12.8082L7.44542 12.3948Z" fill="#FBBC05" style="fill:#FBBC05;fill:color(display-p3 0.9843 0.7373 0.0196);fill-opacity:1;"/>
<path d="M11.5545 6.58797C12.6345 6.58797 13.5945 6.9613 14.3611 7.6813L16.4611 5.5813C15.1878 4.39464 13.5345 3.66797 11.5545 3.66797C8.68781 3.66797 6.21448 5.31464 5.00781 7.71464L7.44781 9.60797C8.02781 7.87464 9.64781 6.58797 11.5545 6.58797Z" fill="#EA4335" style="fill:#EA4335;fill:color(display-p3 0.9176 0.2627 0.2078);fill-opacity:1;"/>
</g>
</g>
<defs>
<clipPath id="clip0_5467_24298">
<rect width="16" height="16" fill="white" style="fill:white;fill-opacity:1;" transform="translate(3.55469 3)"/>
</clipPath>
<clipPath id="clip1_5467_24298">
<rect width="16" height="16" fill="white" style="fill:white;fill-opacity:1;" transform="translate(3.55469 3)"/>
</clipPath>
</defs>
</svg>
