<svg width="807" height="196" viewBox="0 0 807 196" fill="none" xmlns="http://www.w3.org/2000/svg">
<path d="M40.1562 161.895H782.191" stroke="#374151" style="stroke:#374151;stroke:color(display-p3 0.2157 0.2549 0.3176);stroke-opacity:1;" stroke-width="1.1096" stroke-dasharray="3.33 3.33"/>
<path d="M40.1562 122.379H782.191" stroke="#374151" style="stroke:#374151;stroke:color(display-p3 0.2157 0.2549 0.3176);stroke-opacity:1;" stroke-width="1.1096" stroke-dasharray="3.33 3.33"/>
<path d="M40.1562 82.8594H782.191" stroke="#374151" style="stroke:#374151;stroke:color(display-p3 0.2157 0.2549 0.3176);stroke-opacity:1;" stroke-width="1.1096" stroke-dasharray="3.33 3.33"/>
<path d="M40.1562 3.82031H782.191" stroke="#374151" style="stroke:#374151;stroke:color(display-p3 0.2157 0.2549 0.3176);stroke-opacity:1;" stroke-width="1.1096" stroke-dasharray="3.33 3.33"/>
<path d="M86.5391 3.82031V161.898" stroke="#374151" style="stroke:#374151;stroke:color(display-p3 0.2157 0.2549 0.3176);stroke-opacity:1;" stroke-width="1.1096" stroke-dasharray="3.33 3.33"/>
<path d="M179.289 3.82031V161.898" stroke="#374151" style="stroke:#374151;stroke:color(display-p3 0.2157 0.2549 0.3176);stroke-opacity:1;" stroke-width="1.1096" stroke-dasharray="3.33 3.33"/>
<path d="M272.047 3.82031V161.898" stroke="#374151" style="stroke:#374151;stroke:color(display-p3 0.2157 0.2549 0.3176);stroke-opacity:1;" stroke-width="1.1096" stroke-dasharray="3.33 3.33"/>
<path d="M364.805 3.82031V161.898" stroke="#374151" style="stroke:#374151;stroke:color(display-p3 0.2157 0.2549 0.3176);stroke-opacity:1;" stroke-width="1.1096" stroke-dasharray="3.33 3.33"/>
<path d="M457.562 3.82031V161.898" stroke="#374151" style="stroke:#374151;stroke:color(display-p3 0.2157 0.2549 0.3176);stroke-opacity:1;" stroke-width="1.1096" stroke-dasharray="3.33 3.33"/>
<path d="M550.312 3.82031V161.898" stroke="#374151" style="stroke:#374151;stroke:color(display-p3 0.2157 0.2549 0.3176);stroke-opacity:1;" stroke-width="1.1096" stroke-dasharray="3.33 3.33"/>
<path d="M643.062 3.82031V161.898" stroke="#374151" style="stroke:#374151;stroke:color(display-p3 0.2157 0.2549 0.3176);stroke-opacity:1;" stroke-width="1.1096" stroke-dasharray="3.33 3.33"/>
<path d="M735.82 3.82031V161.898" stroke="#374151" style="stroke:#374151;stroke:color(display-p3 0.2157 0.2549 0.3176);stroke-opacity:1;" stroke-width="1.1096" stroke-dasharray="3.33 3.33"/>
<path d="M40.1562 3.82031V161.898" stroke="#374151" style="stroke:#374151;stroke:color(display-p3 0.2157 0.2549 0.3176);stroke-opacity:1;" stroke-width="1.1096" stroke-dasharray="3.33 3.33"/>
<path d="M782.195 3.82031V161.898" stroke="#374151" style="stroke:#374151;stroke:color(display-p3 0.2157 0.2549 0.3176);stroke-opacity:1;" stroke-width="1.1096" stroke-dasharray="3.33 3.33"/>
<path d="M40.1562 161.895H782.191" stroke="#9CA3AF" style="stroke:#9CA3AF;stroke:color(display-p3 0.6118 0.6392 0.6863);stroke-opacity:1;" stroke-width="1.1096"/>
<path d="M86.5469 168.669V161.895" stroke="#9CA3AF" style="stroke:#9CA3AF;stroke:color(display-p3 0.6118 0.6392 0.6863);stroke-opacity:1;" stroke-width="1.1096"/>
<path d="M78.5143 183.482C78.5143 184.977 78.1979 186.14 77.5651 186.972C76.9323 187.798 76.0856 188.211 75.0251 188.211C74.5329 188.211 74.1286 188.141 73.8122 188V186.541C74.1286 186.77 74.5387 186.884 75.0426 186.884C76.3727 186.884 77.0377 185.756 77.0377 183.5V175.396H78.5143V183.482ZM87.9713 188H86.5299V186.594H86.4948C85.8678 187.672 84.945 188.211 83.7262 188.211C82.8297 188.211 82.1266 187.974 81.6168 187.499C81.1129 187.024 80.861 186.395 80.861 185.609C80.861 183.928 81.8512 182.949 83.8317 182.674L86.5299 182.296C86.5299 180.767 85.9118 180.002 84.6754 180.002C83.5915 180.002 82.6129 180.371 81.7399 181.109V179.633C82.6247 179.07 83.6442 178.789 84.7985 178.789C86.9137 178.789 87.9713 179.908 87.9713 182.146V188ZM86.5299 183.447L84.359 183.746C83.6911 183.84 83.1872 184.007 82.8473 184.247C82.5075 184.481 82.3376 184.9 82.3376 185.504C82.3376 185.943 82.4928 186.304 82.8034 186.585C83.1198 186.86 83.5387 186.998 84.0602 186.998C84.7751 186.998 85.3639 186.749 85.8268 186.251C86.2956 185.747 86.5299 185.111 86.5299 184.344V183.447ZM98.1579 188H96.7165V182.867C96.7165 180.957 96.0192 180.002 94.6247 180.002C93.904 180.002 93.3063 180.274 92.8317 180.819C92.3629 181.358 92.1286 182.041 92.1286 182.867V188H90.6872V179H92.1286V180.494H92.1637C92.8434 179.357 93.8278 178.789 95.1168 178.789C96.1012 178.789 96.8542 179.108 97.3756 179.747C97.8971 180.38 98.1579 181.297 98.1579 182.498V188Z" fill="#9CA3AF" style="fill:#9CA3AF;fill:color(display-p3 0.6118 0.6392 0.6863);fill-opacity:1;"/>
<path d="M179.289 168.669V161.895" stroke="#9CA3AF" style="stroke:#9CA3AF;stroke:color(display-p3 0.6118 0.6392 0.6863);stroke-opacity:1;" stroke-width="1.1096"/>
<path d="M172.942 176.732H168.02V181.092H172.573V182.419H168.02V188H166.544V175.396H172.942V176.732ZM182.373 183.86H176.018C176.042 184.862 176.311 185.636 176.827 186.181C177.342 186.726 178.051 186.998 178.954 186.998C179.967 186.998 180.899 186.664 181.749 185.996V187.35C180.958 187.924 179.912 188.211 178.611 188.211C177.34 188.211 176.34 187.804 175.614 186.989C174.887 186.169 174.524 185.018 174.524 183.535C174.524 182.135 174.92 180.995 175.711 180.116C176.507 179.231 177.495 178.789 178.673 178.789C179.85 178.789 180.761 179.17 181.406 179.932C182.05 180.693 182.373 181.751 182.373 183.104V183.86ZM180.896 182.639C180.89 181.807 180.688 181.159 180.29 180.696C179.897 180.233 179.349 180.002 178.646 180.002C177.966 180.002 177.389 180.245 176.915 180.731C176.44 181.218 176.147 181.854 176.036 182.639H180.896ZM186.038 186.699H186.003V188H184.561V174.676H186.003V180.582H186.038C186.747 179.387 187.784 178.789 189.149 178.789C190.303 178.789 191.206 179.193 191.856 180.002C192.512 180.805 192.84 181.883 192.84 183.236C192.84 184.742 192.474 185.949 191.742 186.857C191.009 187.76 190.007 188.211 188.736 188.211C187.547 188.211 186.647 187.707 186.038 186.699ZM186.003 183.069V184.326C186.003 185.07 186.243 185.703 186.723 186.225C187.21 186.74 187.825 186.998 188.569 186.998C189.442 186.998 190.125 186.664 190.617 185.996C191.115 185.328 191.364 184.399 191.364 183.21C191.364 182.208 191.132 181.423 190.67 180.854C190.207 180.286 189.58 180.002 188.789 180.002C187.951 180.002 187.277 180.295 186.767 180.881C186.257 181.461 186.003 182.19 186.003 183.069Z" fill="#9CA3AF" style="fill:#9CA3AF;fill:color(display-p3 0.6118 0.6392 0.6863);fill-opacity:1;"/>
<path d="M272.047 168.669V161.895" stroke="#9CA3AF" style="stroke:#9CA3AF;stroke:color(display-p3 0.6118 0.6392 0.6863);stroke-opacity:1;" stroke-width="1.1096"/>
<path d="M270.755 188H269.287V179.545C269.287 178.877 269.328 178.06 269.41 177.093H269.375C269.235 177.661 269.109 178.068 268.997 178.314L264.691 188H263.97L259.672 178.385C259.549 178.104 259.423 177.673 259.294 177.093H259.259C259.306 177.597 259.329 178.42 259.329 179.562V188H257.906V175.396H259.857L263.724 184.186C264.023 184.859 264.216 185.363 264.304 185.697H264.357C264.609 185.006 264.811 184.49 264.963 184.15L268.909 175.396H270.755V188ZM280.326 188H278.885V186.594H278.85C278.223 187.672 277.3 188.211 276.081 188.211C275.185 188.211 274.482 187.974 273.972 187.499C273.468 187.024 273.216 186.395 273.216 185.609C273.216 183.928 274.206 182.949 276.187 182.674L278.885 182.296C278.885 180.767 278.267 180.002 277.031 180.002C275.947 180.002 274.968 180.371 274.095 181.109V179.633C274.98 179.07 275.999 178.789 277.154 178.789C279.269 178.789 280.326 179.908 280.326 182.146V188ZM278.885 183.447L276.714 183.746C276.046 183.84 275.542 184.007 275.202 184.247C274.863 184.481 274.693 184.9 274.693 185.504C274.693 185.943 274.848 186.304 275.158 186.585C275.475 186.86 275.894 186.998 276.415 186.998C277.13 186.998 277.719 186.749 278.182 186.251C278.651 185.747 278.885 185.111 278.885 184.344V183.447ZM287.736 180.459C287.484 180.266 287.12 180.169 286.646 180.169C286.031 180.169 285.515 180.459 285.099 181.039C284.689 181.619 284.484 182.41 284.484 183.412V188H283.042V179H284.484V180.854H284.519C284.724 180.222 285.037 179.729 285.459 179.378C285.881 179.021 286.353 178.842 286.874 178.842C287.249 178.842 287.536 178.883 287.736 178.965V180.459Z" fill="#9CA3AF" style="fill:#9CA3AF;fill:color(display-p3 0.6118 0.6392 0.6863);fill-opacity:1;"/>
<path d="M364.805 168.669V161.895" stroke="#9CA3AF" style="stroke:#9CA3AF;stroke:color(display-p3 0.6118 0.6392 0.6863);stroke-opacity:1;" stroke-width="1.1096"/>
<path d="M361.985 188H360.35L359.014 184.467H353.671L352.414 188H350.77L355.604 175.396H357.134L361.985 188ZM358.531 183.14L356.554 177.77C356.489 177.594 356.425 177.312 356.36 176.926H356.325C356.266 177.283 356.199 177.564 356.123 177.77L354.163 183.14H358.531ZM365.132 186.699H365.097V192.14H363.655V179H365.097V180.582H365.132C365.841 179.387 366.878 178.789 368.243 178.789C369.403 178.789 370.308 179.193 370.959 180.002C371.609 180.805 371.934 181.883 371.934 183.236C371.934 184.742 371.568 185.949 370.836 186.857C370.103 187.76 369.101 188.211 367.83 188.211C366.664 188.211 365.764 187.707 365.132 186.699ZM365.097 183.069V184.326C365.097 185.07 365.337 185.703 365.817 186.225C366.304 186.74 366.919 186.998 367.663 186.998C368.536 186.998 369.219 186.664 369.711 185.996C370.209 185.328 370.458 184.399 370.458 183.21C370.458 182.208 370.226 181.423 369.764 180.854C369.301 180.286 368.674 180.002 367.883 180.002C367.045 180.002 366.371 180.295 365.861 180.881C365.351 181.461 365.097 182.19 365.097 183.069ZM378.931 180.459C378.679 180.266 378.315 180.169 377.841 180.169C377.225 180.169 376.71 180.459 376.294 181.039C375.884 181.619 375.679 182.41 375.679 183.412V188H374.237V179H375.679V180.854H375.714C375.919 180.222 376.232 179.729 376.654 179.378C377.076 179.021 377.548 178.842 378.069 178.842C378.444 178.842 378.731 178.883 378.931 178.965V180.459Z" fill="#9CA3AF" style="fill:#9CA3AF;fill:color(display-p3 0.6118 0.6392 0.6863);fill-opacity:1;"/>
<path d="M457.555 168.669V161.895" stroke="#9CA3AF" style="stroke:#9CA3AF;stroke:color(display-p3 0.6118 0.6392 0.6863);stroke-opacity:1;" stroke-width="1.1096"/>
<path d="M455.026 188H453.558V179.545C453.558 178.877 453.6 178.06 453.682 177.093H453.646C453.506 177.661 453.38 178.068 453.268 178.314L448.962 188H448.241L443.943 178.385C443.82 178.104 443.694 177.673 443.565 177.093H443.53C443.577 177.597 443.6 178.42 443.6 179.562V188H442.177V175.396H444.128L447.995 184.186C448.294 184.859 448.487 185.363 448.575 185.697H448.628C448.88 185.006 449.082 184.49 449.234 184.15L453.181 175.396H455.026V188ZM464.598 188H463.156V186.594H463.121C462.494 187.672 461.571 188.211 460.352 188.211C459.456 188.211 458.753 187.974 458.243 187.499C457.739 187.024 457.487 186.395 457.487 185.609C457.487 183.928 458.477 182.949 460.458 182.674L463.156 182.296C463.156 180.767 462.538 180.002 461.302 180.002C460.218 180.002 459.239 180.371 458.366 181.109V179.633C459.251 179.07 460.27 178.789 461.425 178.789C463.54 178.789 464.598 179.908 464.598 182.146V188ZM463.156 183.447L460.985 183.746C460.317 183.84 459.813 184.007 459.474 184.247C459.134 184.481 458.964 184.9 458.964 185.504C458.964 185.943 459.119 186.304 459.43 186.585C459.746 186.86 460.165 186.998 460.686 186.998C461.401 186.998 461.99 186.749 462.453 186.251C462.922 185.747 463.156 185.111 463.156 184.344V183.447ZM474.476 179L470.337 189.441C469.599 191.305 468.561 192.236 467.225 192.236C466.85 192.236 466.537 192.198 466.285 192.122V190.83C466.596 190.936 466.88 190.988 467.138 190.988C467.864 190.988 468.409 190.555 468.772 189.688L469.493 187.982L465.977 179H467.577L470.012 185.926C470.041 186.014 470.102 186.242 470.196 186.611H470.249C470.278 186.471 470.337 186.248 470.425 185.943L472.982 179H474.476Z" fill="#9CA3AF" style="fill:#9CA3AF;fill:color(display-p3 0.6118 0.6392 0.6863);fill-opacity:1;"/>
<path d="M550.305 168.669V161.895" stroke="#9CA3AF" style="stroke:#9CA3AF;stroke:color(display-p3 0.6118 0.6392 0.6863);stroke-opacity:1;" stroke-width="1.1096"/>
<path d="M541.769 183.482C541.769 184.977 541.453 186.14 540.82 186.972C540.187 187.798 539.34 188.211 538.28 188.211C537.788 188.211 537.383 188.141 537.067 188V186.541C537.383 186.77 537.794 186.884 538.298 186.884C539.628 186.884 540.293 185.756 540.293 183.5V175.396H541.769V183.482ZM552.061 188H550.62V186.576H550.585C549.987 187.666 549.061 188.211 547.807 188.211C545.663 188.211 544.59 186.934 544.59 184.379V179H546.023V184.15C546.023 186.049 546.75 186.998 548.203 186.998C548.906 186.998 549.483 186.74 549.934 186.225C550.391 185.703 550.62 185.023 550.62 184.186V179H552.061V188ZM562.45 188H561.008V182.867C561.008 180.957 560.311 180.002 558.917 180.002C558.196 180.002 557.598 180.274 557.124 180.819C556.655 181.358 556.421 182.041 556.421 182.867V188H554.979V179H556.421V180.494H556.456C557.135 179.357 558.12 178.789 559.409 178.789C560.393 178.789 561.146 179.108 561.668 179.747C562.189 180.38 562.45 181.297 562.45 182.498V188Z" fill="#9CA3AF" style="fill:#9CA3AF;fill:color(display-p3 0.6118 0.6392 0.6863);fill-opacity:1;"/>
<path d="M643.062 168.669V161.895" stroke="#9CA3AF" style="stroke:#9CA3AF;stroke:color(display-p3 0.6118 0.6392 0.6863);stroke-opacity:1;" stroke-width="1.1096"/>
<path d="M637.448 183.482C637.448 184.977 637.132 186.14 636.499 186.972C635.866 187.798 635.019 188.211 633.959 188.211C633.467 188.211 633.062 188.141 632.746 188V186.541C633.062 186.77 633.472 186.884 633.976 186.884C635.306 186.884 635.971 185.756 635.971 183.5V175.396H637.448V183.482ZM647.74 188H646.299V186.576H646.263C645.666 187.666 644.74 188.211 643.486 188.211C641.342 188.211 640.269 186.934 640.269 184.379V179H641.702V184.15C641.702 186.049 642.429 186.998 643.882 186.998C644.585 186.998 645.162 186.74 645.613 186.225C646.07 185.703 646.299 185.023 646.299 184.186V179H647.74V188ZM652.099 188H650.658V174.676H652.099V188Z" fill="#9CA3AF" style="fill:#9CA3AF;fill:color(display-p3 0.6118 0.6392 0.6863);fill-opacity:1;"/>
<path d="M735.828 168.669V161.895" stroke="#9CA3AF" style="stroke:#9CA3AF;stroke:color(display-p3 0.6118 0.6392 0.6863);stroke-opacity:1;" stroke-width="1.1096"/>
<path d="M731.03 188H729.395L728.059 184.467H722.715L721.458 188H719.815L724.649 175.396H726.178L731.03 188ZM727.575 183.14L725.598 177.77C725.533 177.594 725.469 177.312 725.405 176.926H725.369C725.311 177.283 725.243 177.564 725.167 177.77L723.207 183.14H727.575ZM739.977 188H738.535V186.576H738.5C737.903 187.666 736.977 188.211 735.723 188.211C733.578 188.211 732.506 186.934 732.506 184.379V179H733.939V184.15C733.939 186.049 734.665 186.998 736.118 186.998C736.822 186.998 737.399 186.74 737.85 186.225C738.307 185.703 738.535 185.023 738.535 184.186V179H739.977V188ZM750.576 187.279C750.576 190.584 748.994 192.236 745.83 192.236C744.717 192.236 743.744 192.025 742.912 191.604V190.162C743.926 190.725 744.893 191.006 745.813 191.006C748.028 191.006 749.135 189.828 749.135 187.473V186.488H749.1C748.414 187.637 747.383 188.211 746.006 188.211C744.887 188.211 743.985 187.812 743.299 187.016C742.619 186.213 742.28 185.138 742.28 183.79C742.28 182.261 742.646 181.045 743.378 180.143C744.116 179.24 745.124 178.789 746.402 178.789C747.615 178.789 748.514 179.275 749.1 180.248H749.135V179H750.576V187.279ZM749.135 183.931V182.604C749.135 181.889 748.892 181.276 748.406 180.767C747.925 180.257 747.324 180.002 746.604 180.002C745.713 180.002 745.016 180.327 744.512 180.978C744.008 181.622 743.756 182.527 743.756 183.693C743.756 184.695 743.996 185.498 744.477 186.102C744.963 186.699 745.605 186.998 746.402 186.998C747.21 186.998 747.866 186.711 748.37 186.137C748.88 185.562 749.135 184.827 749.135 183.931Z" fill="#9CA3AF" style="fill:#9CA3AF;fill:color(display-p3 0.6118 0.6392 0.6863);fill-opacity:1;"/>
<path d="M40.1484 3.82031V161.898" stroke="#9CA3AF" style="stroke:#9CA3AF;stroke:color(display-p3 0.6118 0.6392 0.6863);stroke-opacity:1;" stroke-width="1.1096"/>
<path d="M31.8438 161.895H40.1501" stroke="#9CA3AF" style="stroke:#9CA3AF;stroke:color(display-p3 0.6118 0.6392 0.6863);stroke-opacity:1;" stroke-width="1.1096"/>
<path d="M28.3322 161.286C28.3322 162.341 28.2355 163.275 28.0422 164.09C27.8547 164.904 27.5793 165.593 27.216 166.155C26.8586 166.712 26.4162 167.137 25.8888 167.43C25.3674 167.717 24.7726 167.86 24.1047 167.86C23.4719 167.86 22.9064 167.723 22.4084 167.447C21.9162 167.166 21.5002 166.759 21.1603 166.226C20.8205 165.692 20.5627 165.039 20.3869 164.266C20.2111 163.486 20.1232 162.596 20.1232 161.594C20.1232 160.492 20.214 159.52 20.3957 158.676C20.5832 157.832 20.8556 157.126 21.2131 156.558C21.5705 155.983 22.0129 155.553 22.5402 155.266C23.0734 154.973 23.6828 154.826 24.3683 154.826C27.0109 154.826 28.3322 156.979 28.3322 161.286ZM26.8556 161.427C26.8556 157.841 26.0031 156.048 24.298 156.048C22.4992 156.048 21.5998 157.873 21.5998 161.523C21.5998 164.928 22.4816 166.63 24.2453 166.63C25.9855 166.63 26.8556 164.896 26.8556 161.427Z" fill="#9CA3AF" style="fill:#9CA3AF;fill:color(display-p3 0.6118 0.6392 0.6863);fill-opacity:1;"/>
<path d="M31.8516 122.379H40.1579" stroke="#9CA3AF" style="stroke:#9CA3AF;stroke:color(display-p3 0.6118 0.6392 0.6863);stroke-opacity:1;" stroke-width="1.1096"/>
<path d="M16.4574 118.826C16.4574 118.439 16.3959 118.103 16.2728 117.815C16.1556 117.528 15.9916 117.291 15.7806 117.104C15.5756 116.91 15.3324 116.767 15.0511 116.673C14.7699 116.579 14.4652 116.532 14.1371 116.532C13.8558 116.532 13.5804 116.57 13.3109 116.646C13.0414 116.723 12.7777 116.828 12.5199 116.963C12.2679 117.098 12.0218 117.259 11.7816 117.446C11.5472 117.634 11.3275 117.842 11.1224 118.07V116.523C11.5267 116.131 11.9779 115.832 12.4759 115.627C12.9798 115.416 13.5922 115.311 14.3129 115.311C14.8285 115.311 15.306 115.387 15.7455 115.539C16.1849 115.686 16.5658 115.902 16.8881 116.189C17.2103 116.477 17.4623 116.831 17.6439 117.253C17.8314 117.675 17.9252 118.158 17.9252 118.703C17.9252 119.201 17.8666 119.652 17.7494 120.057C17.6381 120.461 17.4652 120.842 17.2308 121.199C17.0023 121.557 16.7123 121.899 16.3607 122.228C16.0091 122.556 15.5961 122.89 15.1214 123.229C14.5297 123.651 14.0404 124.012 13.6537 124.311C13.2728 124.609 12.9681 124.891 12.7396 125.154C12.517 125.412 12.3588 125.673 12.265 125.937C12.1771 126.194 12.1332 126.493 12.1332 126.833H18.4086V128.125H10.6302V127.501C10.6302 126.962 10.6888 126.487 10.806 126.077C10.9232 125.667 11.1166 125.277 11.3861 124.908C11.6556 124.539 12.0072 124.17 12.4408 123.801C12.8802 123.432 13.4164 123.016 14.0492 122.553C14.5062 122.225 14.8871 121.911 15.1918 121.612C15.5023 121.313 15.7513 121.015 15.9388 120.716C16.1263 120.417 16.2582 120.115 16.3343 119.811C16.4164 119.5 16.4574 119.172 16.4574 118.826ZM28.3402 121.771C28.3402 122.825 28.2435 123.76 28.0502 124.574C27.8627 125.389 27.5873 126.077 27.224 126.64C26.8666 127.196 26.4242 127.621 25.8968 127.914C25.3754 128.201 24.7806 128.345 24.1127 128.345C23.4798 128.345 22.9144 128.207 22.4164 127.932C21.9242 127.65 21.5082 127.243 21.1683 126.71C20.8285 126.177 20.5707 125.523 20.3949 124.75C20.2191 123.971 20.1312 123.08 20.1312 122.078C20.1312 120.977 20.222 120.004 20.4037 119.16C20.5912 118.316 20.8636 117.61 21.2211 117.042C21.5785 116.468 22.0209 116.037 22.5482 115.75C23.0814 115.457 23.6908 115.311 24.3763 115.311C27.0189 115.311 28.3402 117.464 28.3402 121.771ZM26.8636 121.911C26.8636 118.325 26.0111 116.532 24.306 116.532C22.5072 116.532 21.6078 118.357 21.6078 122.008C21.6078 125.412 22.4896 127.114 24.2533 127.114C25.9935 127.114 26.8636 125.38 26.8636 121.911Z" fill="#9CA3AF" style="fill:#9CA3AF;fill:color(display-p3 0.6118 0.6392 0.6863);fill-opacity:1;"/>
<path d="M31.8438 82.8594H40.1501" stroke="#9CA3AF" style="stroke:#9CA3AF;stroke:color(display-p3 0.6118 0.6392 0.6863);stroke-opacity:1;" stroke-width="1.1096"/>
<path d="M17.1367 76.002V84.3252H18.7539V85.6436H17.1367V88.6055H15.7129V85.6436H9.78904V84.3955C10.3398 83.7744 10.8965 83.1123 11.459 82.4092C12.0215 81.7002 12.5576 80.9824 13.0674 80.2559C13.583 79.5293 14.0576 78.8057 14.4912 78.085C14.9306 77.3584 15.2998 76.6641 15.5986 76.002H17.1367ZM11.415 84.3252H15.7129V78.1553C15.2734 78.9229 14.8574 79.6084 14.4648 80.2119C14.0722 80.8154 13.6972 81.3633 13.3398 81.8555C12.9883 82.3477 12.6513 82.793 12.3291 83.1914C12.0068 83.5898 11.7021 83.9678 11.415 84.3252ZM28.334 82.251C28.334 83.3057 28.2373 84.2402 28.0439 85.0547C27.8564 85.8691 27.581 86.5576 27.2178 87.1201C26.8603 87.6768 26.4179 88.1016 25.8906 88.3945C25.3691 88.6816 24.7744 88.8252 24.1064 88.8252C23.4736 88.8252 22.9082 88.6875 22.4101 88.4121C21.9179 88.1309 21.5019 87.7236 21.1621 87.1904C20.8222 86.6572 20.5644 86.0039 20.3887 85.2305C20.2129 84.4512 20.125 83.5605 20.125 82.5586C20.125 81.457 20.2158 80.4844 20.3974 79.6406C20.5849 78.7969 20.8574 78.0908 21.2148 77.5225C21.5722 76.9482 22.0146 76.5176 22.542 76.2305C23.0752 75.9375 23.6846 75.791 24.3701 75.791C27.0127 75.791 28.334 77.9443 28.334 82.251ZM26.8574 82.3916C26.8574 78.8057 26.0049 77.0127 24.2998 77.0127C22.501 77.0127 21.6015 78.8379 21.6015 82.4883C21.6015 85.8926 22.4834 87.5947 24.2471 87.5947C25.9873 87.5947 26.8574 85.8604 26.8574 82.3916Z" fill="#9CA3AF" style="fill:#9CA3AF;fill:color(display-p3 0.6118 0.6392 0.6863);fill-opacity:1;"/>
<path d="M31.8516 3.82031H40.1579" stroke="#9CA3AF" style="stroke:#9CA3AF;stroke:color(display-p3 0.6118 0.6392 0.6863);stroke-opacity:1;" stroke-width="1.1096"/>
<path d="M10.4632 13.9531C10.4632 13.6191 10.516 13.2852 10.6214 12.9512C10.7269 12.6113 10.8763 12.2949 11.0697 12.002C11.2689 11.709 11.5121 11.4424 11.7992 11.2021C12.0922 10.9619 12.4232 10.7715 12.7923 10.6309C12.2474 10.3262 11.8138 9.93652 11.4916 9.46191C11.1693 8.98145 11.0082 8.45117 11.0082 7.87109C11.0082 7.4082 11.0961 6.98047 11.2718 6.58789C11.4535 6.19531 11.7025 5.85547 12.0189 5.56836C12.3353 5.28125 12.7103 5.05859 13.1439 4.90039C13.5775 4.73633 14.0463 4.6543 14.5502 4.6543C15.0599 4.6543 15.5316 4.73633 15.9652 4.90039C16.3988 5.06445 16.7738 5.29004 17.0902 5.57715C17.4066 5.86426 17.6527 6.2041 17.8285 6.59668C18.0043 6.98926 18.0922 7.41406 18.0922 7.87109C18.0922 8.45117 17.931 8.98145 17.6088 9.46191C17.2865 9.93652 16.8588 10.3262 16.3256 10.6309C16.6888 10.7715 17.014 10.9619 17.3011 11.2021C17.5882 11.4424 17.8285 11.709 18.0218 12.002C18.2211 12.2949 18.3734 12.6113 18.4789 12.9512C18.5843 13.2852 18.6371 13.6191 18.6371 13.9531C18.6371 14.5039 18.5375 15.0078 18.3382 15.4648C18.139 15.9219 17.8578 16.3145 17.4945 16.6426C17.1371 16.9648 16.7064 17.2168 16.2025 17.3984C15.7045 17.5801 15.1537 17.6709 14.5502 17.6709C13.9525 17.6709 13.4047 17.5801 12.9066 17.3984C12.4086 17.2168 11.9779 16.9648 11.6146 16.6426C11.2513 16.3145 10.9672 15.9219 10.7621 15.4648C10.5629 15.0078 10.4632 14.5039 10.4632 13.9531ZM12.0277 13.8301C12.0277 14.2227 12.0863 14.5771 12.2035 14.8936C12.3265 15.21 12.4964 15.4795 12.7132 15.7021C12.9359 15.9248 13.2025 16.0977 13.5131 16.2207C13.8295 16.3379 14.1781 16.3965 14.5589 16.3965C14.9281 16.3965 15.2679 16.335 15.5785 16.2119C15.889 16.0889 16.1556 15.916 16.3783 15.6934C16.6068 15.4707 16.7826 15.2012 16.9056 14.8848C17.0345 14.5684 17.099 14.2168 17.099 13.8301C17.099 13.4785 17.0375 13.1504 16.9144 12.8457C16.7972 12.5352 16.6273 12.2627 16.4047 12.0283C16.182 11.7939 15.9154 11.6094 15.6048 11.4746C15.2943 11.3398 14.9457 11.2725 14.5589 11.2725C14.1957 11.2725 13.8588 11.3369 13.5482 11.4658C13.2435 11.5889 12.9769 11.7646 12.7484 11.9932C12.5257 12.2158 12.35 12.4854 12.2211 12.8018C12.0922 13.1123 12.0277 13.4551 12.0277 13.8301ZM12.4759 7.98535C12.4759 8.28418 12.5287 8.5625 12.6341 8.82031C12.7455 9.07227 12.8949 9.29492 13.0824 9.48828C13.2757 9.67578 13.4984 9.8252 13.7504 9.93652C14.0023 10.042 14.2718 10.0947 14.5589 10.0947C14.8461 10.0947 15.1156 10.0391 15.3675 9.92773C15.6254 9.81641 15.848 9.66699 16.0355 9.47949C16.223 9.28613 16.3724 9.06348 16.4838 8.81152C16.5951 8.55371 16.6507 8.27832 16.6507 7.98535C16.6507 7.68066 16.5951 7.39941 16.4838 7.1416C16.3783 6.88379 16.2318 6.66113 16.0443 6.47363C15.8568 6.28613 15.6341 6.13965 15.3763 6.03418C15.1244 5.92285 14.8519 5.86719 14.5589 5.86719C14.2484 5.86719 13.9642 5.92285 13.7064 6.03418C13.4545 6.14551 13.2347 6.29785 13.0472 6.49121C12.8656 6.67871 12.725 6.90137 12.6254 7.15918C12.5257 7.41699 12.4759 7.69238 12.4759 7.98535ZM28.3402 11.1143C28.3402 12.1689 28.2435 13.1035 28.0502 13.918C27.8627 14.7324 27.5873 15.4209 27.224 15.9834C26.8666 16.54 26.4242 16.9648 25.8968 17.2578C25.3754 17.5449 24.7806 17.6885 24.1127 17.6885C23.4798 17.6885 22.9144 17.5508 22.4164 17.2754C21.9242 16.9941 21.5082 16.5869 21.1683 16.0537C20.8285 15.5205 20.5707 14.8672 20.3949 14.0938C20.2191 13.3145 20.1312 12.4238 20.1312 11.4219C20.1312 10.3203 20.222 9.34766 20.4037 8.50391C20.5912 7.66016 20.8636 6.9541 21.2211 6.38574C21.5785 5.81152 22.0209 5.38086 22.5482 5.09375C23.0814 4.80078 23.6908 4.6543 24.3763 4.6543C27.0189 4.6543 28.3402 6.80762 28.3402 11.1143ZM26.8636 11.2549C26.8636 7.66895 26.0111 5.87598 24.306 5.87598C22.5072 5.87598 21.6078 7.70117 21.6078 11.3516C21.6078 14.7559 22.4896 16.458 24.2533 16.458C25.9935 16.458 26.8636 14.7236 26.8636 11.2549Z" fill="#9CA3AF" style="fill:#9CA3AF;fill:color(display-p3 0.6118 0.6392 0.6863);fill-opacity:1;"/>
<path d="M49.4141 65.8773C49.4141 64.6573 49.9975 63.4873 51.036 62.6246C52.0745 61.762 53.483 61.2773 54.9516 61.2773H117.249C118.718 61.2773 120.126 61.762 121.165 62.6246C122.203 63.4873 122.787 64.6573 122.787 65.8773V161.901H49.4141V65.8773Z" fill="#22C55E" style="fill:#22C55E;fill:color(display-p3 0.1333 0.7725 0.3686);fill-opacity:1;"/>
<path d="M142.172 61.8499C142.172 60.63 142.755 59.46 143.794 58.5973C144.832 57.7346 146.241 57.25 147.709 57.25H210.007C211.476 57.25 212.884 57.7346 213.923 58.5973C214.961 59.46 215.545 60.63 215.545 61.8499V161.899H142.172V61.8499Z" fill="#22C55E" style="fill:#22C55E;fill:color(display-p3 0.1333 0.7725 0.3686);fill-opacity:1;"/>
<path d="M234.93 55.8109C234.93 54.5909 235.513 53.4209 236.552 52.5582C237.59 51.6956 238.999 51.2109 240.467 51.2109H302.765C304.234 51.2109 305.642 51.6956 306.681 52.5582C307.719 53.4209 308.303 54.5909 308.303 55.8109V161.897H234.93V55.8109Z" fill="#22C55E" style="fill:#22C55E;fill:color(display-p3 0.1333 0.7725 0.3686);fill-opacity:1;"/>
<path d="M327.688 45.7445C327.688 44.5245 328.271 43.3545 329.309 42.4918C330.348 41.6292 331.756 41.1445 333.225 41.1445H395.523C396.991 41.1445 398.4 41.6292 399.438 42.4918C400.477 43.3545 401.06 44.5245 401.06 45.7445V161.893H327.688V45.7445Z" fill="#22C55E" style="fill:#22C55E;fill:color(display-p3 0.1333 0.7725 0.3686);fill-opacity:1;"/>
<path d="M420.438 35.6859C420.438 34.4659 421.021 33.2959 422.059 32.4332C423.098 31.5706 424.506 31.0859 425.975 31.0859H488.273C489.741 31.0859 491.15 31.5706 492.188 32.4332C493.227 33.2959 493.81 34.4659 493.81 35.6859V161.897H420.438V35.6859Z" fill="#22C55E" style="fill:#22C55E;fill:color(display-p3 0.1333 0.7725 0.3686);fill-opacity:1;"/>
<path d="M513.195 29.6429C513.195 28.4229 513.779 27.2529 514.817 26.3903C515.856 25.5276 517.264 25.043 518.733 25.043H581.031C582.499 25.043 583.908 25.5276 584.946 26.3903C585.985 27.2529 586.568 28.4229 586.568 29.6429V161.891H513.195V29.6429Z" fill="#22C55E" style="fill:#22C55E;fill:color(display-p3 0.1333 0.7725 0.3686);fill-opacity:1;"/>
<path d="M605.945 25.6234C605.945 24.4034 606.529 23.2334 607.567 22.3707C608.606 21.5081 610.014 21.0234 611.483 21.0234H673.781C675.249 21.0234 676.658 21.5081 677.696 22.3707C678.735 23.2334 679.318 24.4034 679.318 25.6234V161.897H605.945V25.6234Z" fill="#22C55E" style="fill:#22C55E;fill:color(display-p3 0.1333 0.7725 0.3686);fill-opacity:1;"/>
<path d="M698.703 21.5999C698.703 20.38 699.287 19.21 700.325 18.3473C701.364 17.4846 702.772 17 704.241 17H766.538C768.007 17 769.416 17.4846 770.454 18.3473C771.493 19.21 772.076 20.38 772.076 21.5999V161.898H698.703V21.5999Z" fill="#22C55E" style="fill:#22C55E;fill:color(display-p3 0.1333 0.7725 0.3686);fill-opacity:1;"/>
</svg>
