<svg xmlns="http://www.w3.org/2000/svg" width="21" height="21" viewBox="0 0 21 21" fill="none">
<path d="M7.76698 7.6862C7.9678 7.11533 8.36417 6.63396 8.8859 6.32733C9.40763 6.02071 10.021 5.90862 10.6175 6.01093C11.2139 6.11324 11.7549 6.42333 12.1446 6.88629C12.5344 7.34926 12.7477 7.93521 12.7468 8.54036C12.7468 10.2487 10.1843 11.1029 10.1843 11.1029M10.2526 14.5195H10.2611M18.7943 10.2487C18.7943 14.9661 14.97 18.7904 10.2526 18.7904C5.53517 18.7904 1.71094 14.9661 1.71094 10.2487C1.71094 5.53127 5.53517 1.70703 10.2526 1.70703C14.97 1.70703 18.7943 5.53127 18.7943 10.2487Z" stroke="white" style="stroke:white;stroke-opacity:1;" stroke-width="2" stroke-linecap="round" stroke-linejoin="round"/>
</svg>