<svg width="20" height="20" viewBox="0 0 20 20" fill="none" xmlns="http://www.w3.org/2000/svg">
<path d="M12.7203 18.5403H7.28698C3.19531 18.5403 1.44531 16.7903 1.44531 12.6986V12.5903C1.44531 8.89026 2.90365 7.10693 6.17031 6.7986C6.50365 6.7736 6.82031 7.0236 6.85365 7.36526C6.88698 7.70693 6.63698 8.01526 6.28698 8.0486C3.67031 8.29026 2.69531 9.5236 2.69531 12.5986V12.7069C2.69531 16.0986 3.89531 17.2986 7.28698 17.2986H12.7203C16.112 17.2986 17.312 16.0986 17.312 12.7069V12.5986C17.312 9.50693 16.3203 8.2736 13.6536 8.0486C13.312 8.01526 13.0536 7.71526 13.087 7.3736C13.1203 7.03193 13.412 6.7736 13.762 6.80693C17.0786 7.09026 18.562 8.88193 18.562 12.6069V12.7153C18.562 16.7903 16.812 18.5403 12.7203 18.5403Z" fill="white" style="fill:white;fill-opacity:1;"/>
<path d="M10 13.0243C9.65833 13.0243 9.375 12.741 9.375 12.3993V1.66602C9.375 1.32435 9.65833 1.04102 10 1.04102C10.3417 1.04102 10.625 1.32435 10.625 1.66602V12.3993C10.625 12.7493 10.3417 13.0243 10 13.0243Z" fill="white" style="fill:white;fill-opacity:1;"/>
<path d="M10.0005 13.9576C9.84219 13.9576 9.68385 13.8992 9.55885 13.7742L6.76719 10.9826C6.52552 10.7409 6.52552 10.3409 6.76719 10.0992C7.00885 9.85755 7.40885 9.85755 7.65052 10.0992L10.0005 12.4492L12.3505 10.0992C12.5922 9.85755 12.9922 9.85755 13.2339 10.0992C13.4755 10.3409 13.4755 10.7409 13.2339 10.9826L10.4422 13.7742C10.3172 13.8992 10.1589 13.9576 10.0005 13.9576Z" fill="white" style="fill:white;fill-opacity:1;"/>
</svg>
