<svg width="16" height="16" viewBox="0 0 16 16" fill="none" xmlns="http://www.w3.org/2000/svg">
<path d="M11.37 13.52C10.7167 14.1533 10.0034 14.0533 9.3167 13.7533C8.59003 13.4467 7.92336 13.4333 7.1567 13.7533C6.1967 14.1667 5.69003 14.0467 5.1167 13.52C1.86336 10.1667 2.34336 5.06 6.0367 4.87333C6.9367 4.92 7.56336 5.36667 8.09003 5.40667C8.8767 5.24667 9.63003 4.78667 10.47 4.84667C11.4767 4.92667 12.2367 5.32667 12.7367 6.04667C10.6567 7.29333 11.15 10.0333 13.0567 10.8C12.6767 11.8 12.1834 12.7933 11.3634 13.5267L11.37 13.52ZM8.02336 4.83333C7.92336 3.34667 9.13003 2.12 10.5167 2C10.71 3.72 8.9567 5 8.02336 4.83333Z" fill="white" style="fill:white;fill-opacity:1;"/>
</svg>
