<svg width="16" height="16" viewBox="0 0 16 16" fill="none" xmlns="http://www.w3.org/2000/svg">
<path fill-rule="evenodd" clip-rule="evenodd" d="M14.4016 8.00156C14.4016 9.69895 13.7273 11.3268 12.527 12.527C11.3268 13.7273 9.69895 14.4016 8.00156 14.4016C6.30418 14.4016 4.67631 13.7273 3.47608 12.527C2.27585 11.3268 1.60156 9.69895 1.60156 8.00156C1.60156 6.30418 2.27585 4.67631 3.47608 3.47608C4.67631 2.27585 6.30418 1.60156 8.00156 1.60156C9.69895 1.60156 11.3268 2.27585 12.527 3.47608C13.7273 4.67631 14.4016 6.30418 14.4016 8.00156ZM8.80156 4.80156C8.80156 5.01374 8.71728 5.21722 8.56725 5.36725C8.41722 5.51728 8.21374 5.60156 8.00156 5.60156C7.78939 5.60156 7.58591 5.51728 7.43588 5.36725C7.28585 5.21722 7.20156 5.01374 7.20156 4.80156C7.20156 4.58939 7.28585 4.38591 7.43588 4.23588C7.58591 4.08585 7.78939 4.00156 8.00156 4.00156C8.21374 4.00156 8.41722 4.08585 8.56725 4.23588C8.71728 4.38591 8.80156 4.58939 8.80156 4.80156ZM7.20156 7.20156C6.98939 7.20156 6.78591 7.28585 6.63588 7.43588C6.48585 7.58591 6.40156 7.78939 6.40156 8.00156C6.40156 8.21374 6.48585 8.41722 6.63588 8.56725C6.78591 8.71728 6.98939 8.80156 7.20156 8.80156V11.2016C7.20156 11.4137 7.28585 11.6172 7.43588 11.7672C7.58591 11.9173 7.78939 12.0016 8.00156 12.0016H8.80156C9.01374 12.0016 9.21722 11.9173 9.36725 11.7672C9.51728 11.6172 9.60156 11.4137 9.60156 11.2016C9.60156 10.9894 9.51728 10.7859 9.36725 10.6359C9.21722 10.4858 9.01374 10.4016 8.80156 10.4016V8.00156C8.80156 7.78939 8.71728 7.58591 8.56725 7.43588C8.41722 7.28585 8.21374 7.20156 8.00156 7.20156H7.20156Z" fill="#48C884" style="fill:#48C884;fill:color(display-p3 0.2824 0.7843 0.5176);fill-opacity:1;"/>
</svg>
