<svg width="16" height="16" viewBox="0 0 16 16" fill="none" xmlns="http://www.w3.org/2000/svg">
<path d="M3.35054 13.9704H2.72373C1.56413 13.9704 1 13.4251 1 12.3093V6.16658C1 5.05086 1.56413 4.50553 2.72373 4.50553H3.35054C4.51014 4.50553 5.07427 5.05086 5.07427 6.16658V12.3093C5.07427 13.4251 4.51014 13.9704 3.35054 13.9704Z" fill="#48C884" style="fill:#48C884;fill:color(display-p3 0.2824 0.7843 0.5176);fill-opacity:1;"/>
<path d="M10.1799 14.6629H7.79799C7.44697 14.6629 6.68226 14.5563 6.27483 14.1489L4.47299 12.7574L4.3756 12.6821L4.46686 12.5641L4.27531 6.53312L6.84523 2.70958C7.24012 2.12037 8.10512 1.83831 8.78208 2.0953C9.56559 2.35229 10.067 3.21729 9.89153 4.01961L9.5844 5.99407C9.57813 6.03794 9.57813 6.10062 9.62201 6.15077C9.65335 6.18211 9.69722 6.20091 9.74737 6.20091H12.2546C12.8689 6.20091 13.4017 6.45791 13.7151 6.90294C14.0222 7.33544 14.0849 7.90584 13.8843 8.45743L12.3862 13.0206C12.1543 13.9295 11.189 14.6629 10.1799 14.6629Z" fill="#48C884" style="fill:#48C884;fill:color(display-p3 0.2824 0.7843 0.5176);fill-opacity:1;"/>
</svg>
