<svg width="20" height="20" viewBox="0 0 20 20" fill="none" xmlns="http://www.w3.org/2000/svg">
<path d="M13.5609 18.4171H10.3943C9.9276 18.4171 8.91094 18.2754 8.36927 17.7337L5.84427 15.7837L6.61094 14.7921L9.19427 16.7921C9.4026 16.9921 9.9276 17.1587 10.3943 17.1587H13.5609C14.3109 17.1587 15.1193 16.5587 15.2859 15.8837L17.3026 9.75873C17.4359 9.39207 17.4109 9.05873 17.2359 8.81707C17.0526 8.55873 16.7193 8.40873 16.3109 8.40873H12.9776C12.5443 8.40873 12.1443 8.2254 11.8693 7.90873C11.5859 7.58373 11.4609 7.1504 11.5276 6.7004L11.9443 4.0254C12.0443 3.55873 11.7276 3.03373 11.2776 2.88373C10.8693 2.73373 10.3443 2.9504 10.1609 3.21707L6.74427 8.3004L5.71094 7.60873L9.1276 2.5254C9.6526 1.74207 10.8026 1.36707 11.7026 1.70873C12.7443 2.0504 13.4109 3.2004 13.1776 4.26707L12.7693 6.89207C12.7609 6.9504 12.7609 7.03373 12.8193 7.1004C12.8609 7.14207 12.9193 7.16707 12.9859 7.16707H16.3193C17.1359 7.16707 17.8443 7.50873 18.2609 8.1004C18.6693 8.6754 18.7526 9.43373 18.4859 10.1671L16.4943 16.2337C16.1859 17.4421 14.9026 18.4171 13.5609 18.4171Z" fill="white" style="fill:white;fill-opacity:1;"/>
<path d="M4.48438 17.4974H3.65104C2.10938 17.4974 1.35938 16.7724 1.35938 15.2891V7.1224C1.35938 5.63906 2.10938 4.91406 3.65104 4.91406H4.48438C6.02604 4.91406 6.77604 5.63906 6.77604 7.1224V15.2891C6.77604 16.7724 6.02604 17.4974 4.48438 17.4974ZM3.65104 6.16406C2.74271 6.16406 2.60938 6.38073 2.60938 7.1224V15.2891C2.60938 16.0307 2.74271 16.2474 3.65104 16.2474H4.48438C5.39271 16.2474 5.52604 16.0307 5.52604 15.2891V7.1224C5.52604 6.38073 5.39271 6.16406 4.48438 6.16406H3.65104Z" fill="white" style="fill:white;fill-opacity:1;"/>
</svg>
