<svg width="20" height="20" viewBox="0 0 20 20" fill="none" xmlns="http://www.w3.org/2000/svg">
<path d="M5 8.33073V6.66406C5 3.90573 5.83333 1.66406 10 1.66406C14.1667 1.66406 15 3.90573 15 6.66406V8.33073" stroke="white" style="stroke:white;stroke-opacity:1;" stroke-width="1.25" stroke-linecap="round" stroke-linejoin="round"/>
<path d="M9.9974 15.4167C11.148 15.4167 12.0807 14.4839 12.0807 13.3333C12.0807 12.1827 11.148 11.25 9.9974 11.25C8.8468 11.25 7.91406 12.1827 7.91406 13.3333C7.91406 14.4839 8.8468 15.4167 9.9974 15.4167Z" stroke="white" style="stroke:white;stroke-opacity:1;" stroke-width="1.25" stroke-linecap="round" stroke-linejoin="round"/>
<path d="M14.1641 18.3359H5.83073C2.4974 18.3359 1.66406 17.5026 1.66406 14.1693V12.5026C1.66406 9.16927 2.4974 8.33594 5.83073 8.33594H14.1641C17.4974 8.33594 18.3307 9.16927 18.3307 12.5026V14.1693C18.3307 17.5026 17.4974 18.3359 14.1641 18.3359Z" stroke="white" style="stroke:white;stroke-opacity:1;" stroke-width="1.25" stroke-linecap="round" stroke-linejoin="round"/>
</svg>
