<svg width="41" height="42" viewBox="0 0 41 42" fill="none" xmlns="http://www.w3.org/2000/svg">
<rect x="0.5" y="0.839844" width="40.3186" height="40.3186" rx="6.66082" fill="#48C884" fill-opacity="0.16" style="fill:#48C884;fill:color(display-p3 0.2824 0.7843 0.5176);fill-opacity:0.16;"/>
<path d="M15.2373 14.5326H25.2202M15.2373 19.3976H25.2202M15.2373 24.262H25.2202M10.5 31.792V12.0527C10.5 10.3667 12.1159 9 14.1097 9H26.4051C28.3982 9 30.0141 10.3667 30.0141 12.0527V31.7959C30.0141 31.9783 29.7819 32.0928 29.5943 32.0033L25.4404 30.0263C25.356 29.9862 25.2535 29.9855 25.1684 30.0244L20.5275 32.1442C20.4463 32.1817 20.3492 32.1824 20.2667 32.1475L15.2599 30.0191C15.1755 29.9836 15.0757 29.9855 14.9932 30.0257L10.9224 31.9987C10.7342 32.0902 10.5 31.975 10.5 31.792Z" stroke="#47C784" style="stroke:#47C784;stroke:color(display-p3 0.2784 0.7804 0.5176);stroke-opacity:1;" stroke-width="2.4" stroke-linecap="round"/>
</svg>
