<svg width="35" height="35" viewBox="0 0 35 35" fill="none" xmlns="http://www.w3.org/2000/svg">
<g opacity="0.08">
<rect x="0.15625" y="0.470703" width="34" height="34" rx="8.64282" fill="white" style="fill:white;fill-opacity:1;"/>
</g>
<path d="M27.3057 17.3424L24.5167 14.5534C24.4303 14.4671 24.3278 14.3986 24.2149 14.3519C24.1021 14.3052 23.9812 14.2812 23.859 14.2813C23.7369 14.2813 23.616 14.3054 23.5032 14.3522C23.3904 14.3989 23.2879 14.4675 23.2016 14.5538C23.1153 14.6402 23.0468 14.7427 23.0002 14.8556C22.9535 14.9684 22.9295 15.0893 22.9295 15.2115C22.9295 15.3336 22.9536 15.4545 23.0004 15.5673C23.0472 15.6801 23.1157 15.7826 23.2021 15.8689L24.4042 17.07H19.2109C18.9644 17.07 18.7279 17.168 18.5535 17.3423C18.3792 17.5167 18.2812 17.7532 18.2812 17.9997C18.2812 18.2463 18.3792 18.4828 18.5535 18.6571C18.7279 18.8315 18.9644 18.9294 19.2109 18.9294H24.4042L23.2021 20.1315C23.1133 20.2173 23.0425 20.3198 22.9937 20.4333C22.945 20.5467 22.9194 20.6687 22.9183 20.7921C22.9172 20.9156 22.9407 21.038 22.9875 21.1523C23.0342 21.2665 23.1033 21.3703 23.1906 21.4576C23.2779 21.5449 23.3817 21.6139 23.4959 21.6607C23.6102 21.7074 23.7326 21.7309 23.856 21.7299C23.9795 21.7288 24.1015 21.7031 24.2149 21.6544C24.3283 21.6057 24.4309 21.5349 24.5167 21.4461L27.3057 18.657C27.3922 18.5707 27.4607 18.4681 27.5075 18.3553C27.5543 18.2424 27.5784 18.1214 27.5784 17.9993C27.5784 17.8771 27.5543 17.7561 27.5075 17.6432C27.4607 17.5304 27.3922 17.4278 27.3057 17.3415V17.3424Z" fill="white" style="fill:white;fill-opacity:1;"/>
<path d="M19.2109 18.9316C18.9644 18.9316 18.7279 18.8337 18.5535 18.6593C18.3792 18.485 18.2812 18.2485 18.2812 18.002C18.2812 17.7554 18.3792 17.5189 18.5535 17.3446C18.7279 17.1702 18.9644 17.0723 19.2109 17.0723H22.9297V11.4941C22.9289 10.7547 22.6349 10.0457 22.112 9.52279C21.5891 8.9999 20.8801 8.70582 20.1406 8.70508H12.7031C11.9636 8.70582 11.2547 8.9999 10.7318 9.52279C10.2089 10.0457 9.9148 10.7547 9.91406 11.4941V24.5098C9.9148 25.2492 10.2089 25.9582 10.7318 26.4811C11.2547 27.004 11.9636 27.2981 12.7031 27.2988H20.1406C20.8801 27.2981 21.5891 27.004 22.112 26.4811C22.6349 25.9582 22.9289 25.2492 22.9297 24.5098V18.9316H19.2109Z" fill="white" fill-opacity="0.3" style="fill:white;fill-opacity:0.3;"/>
</svg>
