<svg xmlns="http://www.w3.org/2000/svg" width="16" height="16" viewBox="0 0 16 16" fill="none">
<path d="M10.6693 1.33203H5.33594C2.66927 1.33203 1.33594 2.66536 1.33594 5.33203V13.9987C1.33594 14.3654 1.63594 14.6654 2.0026 14.6654H10.6693C13.3359 14.6654 14.6693 13.332 14.6693 10.6654V5.33203C14.6693 2.66536 13.3359 1.33203 10.6693 1.33203Z" stroke="#9E9E9E" style="stroke:#9E9E9E;stroke:color(display-p3 0.6208 0.6208 0.6208);stroke-opacity:1;" stroke-linecap="round" stroke-linejoin="round"/>
<path d="M8.60588 5.22677L5.14588 8.68677C5.01254 8.8201 4.88588 9.0801 4.85921 9.26677L4.67255 10.5868C4.60588 11.0668 4.93921 11.4001 5.41921 11.3334L6.7392 11.1468C6.92587 11.1201 7.18588 10.9934 7.31922 10.8601L10.7792 7.4001C11.3726 6.80677 11.6592 6.11343 10.7792 5.23343C9.89922 4.34677 9.20588 4.62677 8.60588 5.22677Z" stroke="#9E9E9E" style="stroke:#9E9E9E;stroke:color(display-p3 0.6208 0.6208 0.6208);stroke-opacity:1;" stroke-miterlimit="10" stroke-linecap="round" stroke-linejoin="round"/>
<path d="M8.11719 5.71875C8.41052 6.76542 9.23052 7.59208 10.2839 7.88542" stroke="#9E9E9E" style="stroke:#9E9E9E;stroke:color(display-p3 0.6208 0.6208 0.6208);stroke-opacity:1;" stroke-miterlimit="10" stroke-linecap="round" stroke-linejoin="round"/>
</svg>