<svg xmlns="http://www.w3.org/2000/svg" width="21" height="21" viewBox="0 0 21 21" fill="none">
<path d="M10.2604 13.151C11.1445 13.151 11.9923 12.7999 12.6174 12.1747C13.2426 11.5496 13.5938 10.7018 13.5938 9.81771V4.81771C13.5938 3.93365 13.2426 3.08581 12.6174 2.46069C11.9923 1.83556 11.1445 1.48438 10.2604 1.48438C9.37636 1.48438 8.52852 1.83556 7.90339 2.46069C7.27827 3.08581 6.92708 3.93365 6.92708 4.81771V9.81771C6.92708 10.7018 7.27827 11.5496 7.90339 12.1747C8.52852 12.7999 9.37636 13.151 10.2604 13.151ZM8.59375 4.81771C8.59375 4.37568 8.76935 3.95176 9.08191 3.6392C9.39447 3.32664 9.81839 3.15104 10.2604 3.15104C10.7024 3.15104 11.1264 3.32664 11.4389 3.6392C11.7515 3.95176 11.9271 4.37568 11.9271 4.81771V9.81771C11.9271 10.2597 11.7515 10.6837 11.4389 10.9962C11.1264 11.3088 10.7024 11.4844 10.2604 11.4844C9.81839 11.4844 9.39447 11.3088 9.08191 10.9962C8.76935 10.6837 8.59375 10.2597 8.59375 9.81771V4.81771ZM16.9271 9.81771C16.9271 9.59669 16.8393 9.38473 16.683 9.22845C16.5267 9.07217 16.3148 8.98437 16.0938 8.98437C15.8727 8.98437 15.6608 9.07217 15.5045 9.22845C15.3482 9.38473 15.2604 9.59669 15.2604 9.81771C15.2604 11.1438 14.7336 12.4156 13.796 13.3532C12.8583 14.2909 11.5865 14.8177 10.2604 14.8177C8.93433 14.8177 7.66257 14.2909 6.72488 13.3532C5.7872 12.4156 5.26042 11.1438 5.26042 9.81771C5.26042 9.59669 5.17262 9.38473 5.01634 9.22845C4.86006 9.07217 4.6481 8.98437 4.42708 8.98437C4.20607 8.98437 3.99411 9.07217 3.83783 9.22845C3.68155 9.38473 3.59375 9.59669 3.59375 9.81771C3.59522 11.4405 4.18852 13.0069 5.26241 14.2235C6.33631 15.4401 7.81707 16.2232 9.42708 16.426V18.151H7.76042C7.5394 18.151 7.32744 18.2388 7.17116 18.3951C7.01488 18.5514 6.92708 18.7634 6.92708 18.9844C6.92708 19.2054 7.01488 19.4173 7.17116 19.5736C7.32744 19.7299 7.5394 19.8177 7.76042 19.8177H12.7604C12.9814 19.8177 13.1934 19.7299 13.3497 19.5736C13.506 19.4173 13.5938 19.2054 13.5938 18.9844C13.5938 18.7634 13.506 18.5514 13.3497 18.3951C13.1934 18.2388 12.9814 18.151 12.7604 18.151H11.0938V16.426C12.7038 16.2232 14.1845 15.4401 15.2584 14.2235C16.3323 13.0069 16.9256 11.4405 16.9271 9.81771Z" fill="white" fill-opacity="0.6" style="fill:white;fill-opacity:0.6;"/>
</svg>
