<svg width="35" height="35" viewBox="0 0 35 35" fill="none" xmlns="http://www.w3.org/2000/svg">
<g opacity="0.08">
<rect x="0.15625" y="0.15625" width="34" height="34" rx="8.64282" fill="white" style="fill:white;fill-opacity:1;"/>
</g>
<path d="M25.3199 13.8657V20.1357C25.3199 21.1623 24.7699 22.1157 23.8807 22.6382L18.4357 25.7823C17.5466 26.2957 16.4466 26.2957 15.5482 25.7823L10.1032 22.6382C9.21406 22.1249 8.66406 21.1715 8.66406 20.1357V13.8657C8.66406 12.839 9.21406 11.8856 10.1032 11.3631L15.5482 8.21898C16.4374 7.70565 17.5374 7.70565 18.4357 8.21898L23.8807 11.3631C24.7699 11.8856 25.3199 12.8298 25.3199 13.8657Z" stroke="white" style="stroke:white;stroke-opacity:1;" stroke-width="1.375" stroke-linecap="round" stroke-linejoin="round"/>
<path d="M17.003 16.0822C18.1826 16.0822 19.1389 15.1259 19.1389 13.9463C19.1389 12.7668 18.1826 11.8105 17.003 11.8105C15.8234 11.8105 14.8672 12.7668 14.8672 13.9463C14.8672 15.1259 15.8234 16.0822 17.003 16.0822Z" stroke="white" style="stroke:white;stroke-opacity:1;" stroke-width="1.375" stroke-linecap="round" stroke-linejoin="round"/>
<path d="M20.6693 21.2695C20.6693 19.6195 19.0284 18.2812 17.0026 18.2812C14.9768 18.2812 13.3359 19.6195 13.3359 21.2695" stroke="white" style="stroke:white;stroke-opacity:1;" stroke-width="1.375" stroke-linecap="round" stroke-linejoin="round"/>
</svg>
