<svg width="32" height="32" viewBox="0 0 32 32" fill="none" xmlns="http://www.w3.org/2000/svg">
<path d="M16.7917 15.7331C16.7917 14.9967 16.1947 14.3997 15.4583 14.3997C14.722 14.3997 14.125 14.9967 14.125 15.7331C14.125 16.4695 14.722 17.0664 15.4583 17.0664C16.1947 17.0664 16.7917 16.4695 16.7917 15.7331Z" fill="#808080" stroke="#808080" style="fill:#808080;fill:color(display-p3 0.5020 0.5020 0.5020);fill-opacity:1;stroke:#808080;stroke:color(display-p3 0.5020 0.5020 0.5020);stroke-opacity:1;" stroke-width="3.2" stroke-linecap="round" stroke-linejoin="round"/>
<path d="M7.47135 15.7331C7.47135 14.9967 6.8744 14.3997 6.13802 14.3997C5.40164 14.3997 4.80469 14.9967 4.80469 15.7331C4.80469 16.4695 5.40164 17.0664 6.13802 17.0664C6.8744 17.0664 7.47135 16.4695 7.47135 15.7331Z" fill="#808080" stroke="#808080" style="fill:#808080;fill:color(display-p3 0.5020 0.5020 0.5020);fill-opacity:1;stroke:#808080;stroke:color(display-p3 0.5020 0.5020 0.5020);stroke-opacity:1;" stroke-width="3.2" stroke-linecap="round" stroke-linejoin="round"/>
<path d="M26.1276 15.7331C26.1276 14.9967 25.5307 14.3997 24.7943 14.3997C24.0579 14.3997 23.4609 14.9967 23.4609 15.7331C23.4609 16.4695 24.0579 17.0664 24.7943 17.0664C25.5307 17.0664 26.1276 16.4695 26.1276 15.7331Z" fill="#808080" stroke="#808080" style="fill:#808080;fill:color(display-p3 0.5020 0.5020 0.5020);fill-opacity:1;stroke:#808080;stroke:color(display-p3 0.5020 0.5020 0.5020);stroke-opacity:1;" stroke-width="3.2" stroke-linecap="round" stroke-linejoin="round"/>
</svg>
