<svg width="70" height="70" viewBox="0 0 70 70" fill="none" xmlns="http://www.w3.org/2000/svg">
<rect x="0.304688" y="0.164062" width="69.0252" height="69.0252" rx="11.5042" fill="#245139" style="fill:#245139;fill:color(display-p3 0.1412 0.3176 0.2235);fill-opacity:1;"/>
<path d="M51.9088 29.047C51.9088 20.3081 48.4132 16.8125 39.6743 16.8125H29.1876C20.4487 16.8125 16.9531 20.3081 16.9531 29.047V39.5337C16.9531 48.2726 20.4487 51.7682 29.1876 51.7682" stroke="white" style="stroke:white;stroke-opacity:1;" stroke-width="2.55533" stroke-linecap="round" stroke-linejoin="round"/>
<path d="M43.935 25.5519C42.7334 24.0226 40.7235 23.3672 37.7086 23.3672H31.1544C25.6925 23.3672 23.5078 25.5519 23.5078 31.0137V37.5679C23.5078 40.5829 24.1632 42.5928 25.6707 43.7944" stroke="white" style="stroke:white;stroke-opacity:1;" stroke-width="2.55533" stroke-linecap="round" stroke-linejoin="round"/>
<path d="M25.7109 16.8148V12.4453" stroke="white" style="stroke:white;stroke-opacity:1;" stroke-width="2.55533" stroke-linecap="round" stroke-linejoin="round"/>
<path d="M34.4297 16.8148V12.4453" stroke="white" style="stroke:white;stroke-opacity:1;" stroke-width="2.55533" stroke-linecap="round" stroke-linejoin="round"/>
<path d="M43.1641 16.8148V12.4453" stroke="white" style="stroke:white;stroke-opacity:1;" stroke-width="2.55533" stroke-linecap="round" stroke-linejoin="round"/>
<path d="M51.9062 25.5508H56.2757" stroke="white" style="stroke:white;stroke-opacity:1;" stroke-width="2.55533" stroke-linecap="round" stroke-linejoin="round"/>
<path d="M25.7109 51.7695V56.139" stroke="white" style="stroke:white;stroke-opacity:1;" stroke-width="2.55533" stroke-linecap="round" stroke-linejoin="round"/>
<path d="M12.5781 25.5508H16.9476" stroke="white" style="stroke:white;stroke-opacity:1;" stroke-width="2.55533" stroke-linecap="round" stroke-linejoin="round"/>
<path d="M12.5781 34.2891H16.9476" stroke="white" style="stroke:white;stroke-opacity:1;" stroke-width="2.55533" stroke-linecap="round" stroke-linejoin="round"/>
<path d="M12.5781 43.0312H16.9476" stroke="white" style="stroke:white;stroke-opacity:1;" stroke-width="2.55533" stroke-linecap="round" stroke-linejoin="round"/>
<path d="M33.1406 46.2209V44.1891C33.1406 42.9875 34.1238 42.0044 35.3254 42.0044C37.4227 42.0044 38.2747 40.5188 37.2261 38.7055C36.6143 37.6568 36.9857 36.3023 38.0344 35.7124L40.0225 34.5545C40.9401 34.0083 42.1199 34.336 42.666 35.2536L42.7971 35.4721C43.8458 37.2854 45.5499 37.2854 46.5986 35.4721L46.7296 35.2536C47.2758 34.336 48.4556 34.0302 49.3732 34.5545L51.3613 35.7124C52.4099 36.3241 52.7813 37.6568 52.1696 38.7055C51.1209 40.5188 51.973 42.0044 54.0703 42.0044C55.2719 42.0044 56.2551 42.9875 56.2551 44.1891V46.2209C56.2551 47.4225 55.2719 48.4057 54.0703 48.4057C51.973 48.4057 51.1209 49.8913 52.1696 51.7046C52.7813 52.7533 52.4099 54.1078 51.3613 54.6977L49.3732 55.8556C48.4556 56.4018 47.2758 56.0741 46.7296 55.1565L46.5986 54.938C45.5499 53.1247 43.8458 53.1247 42.7971 54.938L42.666 55.1565C42.1199 56.0741 40.9401 56.3799 40.0225 55.8556L38.0344 54.6977C36.9857 54.086 36.6143 52.7533 37.2261 51.7046C38.2747 49.8913 37.4227 48.4057 35.3254 48.4057C34.1238 48.4275 33.1406 47.4444 33.1406 46.2209Z" stroke="white" style="stroke:white;stroke-opacity:1;" stroke-width="2.55533" stroke-miterlimit="10" stroke-linecap="round" stroke-linejoin="round"/>
</svg>
