<svg width="95" height="26" viewBox="0 0 95 26" fill="none" xmlns="http://www.w3.org/2000/svg">
<path d="M11.3706 2.03848e-07H4.00025C3.75625 -0.000153697 3.52022 0.0868404 3.33468 0.245308C3.14914 0.403775 3.0263 0.623296 2.98829 0.864317L0.00736469 19.764C-0.00633952 19.8517 -0.000872837 19.9413 0.0233857 20.0267C0.0476442 20.1121 0.0901187 20.1912 0.147886 20.2586C0.205654 20.326 0.277342 20.3801 0.358013 20.4171C0.438685 20.4541 0.526422 20.4732 0.615187 20.4731H4.13388C4.37804 20.4732 4.6142 20.3861 4.79976 20.2274C4.98532 20.0687 5.10807 19.8489 5.14585 19.6077L5.94981 14.5102C5.98756 14.2691 6.11015 14.0495 6.29549 13.8908C6.48082 13.7322 6.71672 13.6449 6.96069 13.6448H9.29392C14.149 13.6448 16.951 11.2954 17.6827 6.63972C18.0125 4.60286 17.6968 3.00248 16.743 1.88167C15.6955 0.650932 13.8375 2.03848e-07 11.3706 2.03848e-07ZM12.221 6.90268C11.8179 9.54736 9.7972 9.54736 7.84333 9.54736H6.73114L7.5114 4.60825C7.53424 4.46375 7.6079 4.33215 7.71913 4.23712C7.83036 4.14209 7.97185 4.08988 8.11815 4.08988H8.6279C9.95886 4.08988 11.2144 4.08988 11.8632 4.84858C12.2501 5.30121 12.3686 5.9737 12.221 6.90268ZM33.4021 6.81754H29.8726C29.7263 6.81754 29.5848 6.86976 29.4736 6.96478C29.3624 7.05981 29.2887 7.19141 29.2659 7.33591L29.1096 8.32309L28.8628 7.96529C28.0987 6.85634 26.3949 6.48561 24.6943 6.48561C20.7941 6.48561 17.4629 9.43959 16.8141 13.5834C16.4768 15.6504 16.9564 17.6269 18.1289 19.0053C19.2045 20.2726 20.7434 20.8007 22.5744 20.8007C25.717 20.8007 27.4597 18.78 27.4597 18.78L27.3023 19.7607C27.2883 19.8484 27.2934 19.9381 27.3174 20.0236C27.3414 20.1091 27.3836 20.1884 27.4412 20.256C27.4988 20.3236 27.5703 20.3779 27.6509 20.4152C27.7315 20.4525 27.8192 20.4719 27.908 20.472H31.0872C31.3314 20.4721 31.5675 20.385 31.7531 20.2263C31.9386 20.0676 32.0614 19.8478 32.0992 19.6066L34.0067 7.52667C34.0207 7.43918 34.0156 7.34969 33.9917 7.26437C33.9678 7.17906 33.9256 7.09996 33.8681 7.03253C33.8106 6.9651 33.7392 6.91096 33.6587 6.87384C33.5783 6.83672 33.4907 6.81751 33.4021 6.81754ZM28.4824 13.6868C28.1418 15.7032 26.5415 17.0568 24.5003 17.0568C23.4754 17.0568 22.6563 16.7281 22.1304 16.1052C21.6088 15.4866 21.4105 14.6061 21.5765 13.6254C21.8944 11.6262 23.5217 10.2285 25.5317 10.2285C26.5339 10.2285 27.3487 10.5615 27.8853 11.1898C28.4231 11.8245 28.6365 12.7104 28.4824 13.6868ZM52.1994 6.81754H48.6527C48.4854 6.8178 48.3207 6.85888 48.1729 6.93719C48.0251 7.0155 47.8987 7.12869 47.8045 7.26694L42.9128 14.4725L40.8393 7.54822C40.7757 7.33704 40.6457 7.15195 40.4687 7.02035C40.2917 6.88876 40.077 6.81765 39.8565 6.81754H36.3712C36.2733 6.81728 36.1769 6.84039 36.0898 6.88495C36.0027 6.92951 35.9275 6.99423 35.8704 7.07372C35.8134 7.1532 35.7762 7.24517 35.7619 7.34195C35.7475 7.43873 35.7565 7.53753 35.7881 7.63013L39.6948 19.0947L36.022 24.2795C35.9567 24.3715 35.918 24.4796 35.9101 24.592C35.9022 24.7045 35.9254 24.817 35.9771 24.9172C36.0289 25.0173 36.1072 25.1013 36.2035 25.1599C36.2998 25.2185 36.4104 25.2495 36.5231 25.2495H40.0655C40.2309 25.2497 40.3939 25.2098 40.5405 25.1332C40.6871 25.0566 40.8129 24.9457 40.9072 24.8098L52.7037 7.78208C52.7677 7.68996 52.8052 7.58209 52.8122 7.47017C52.8192 7.35825 52.7954 7.24655 52.7434 7.14718C52.6915 7.04781 52.6133 6.96456 52.5174 6.90645C52.4215 6.84834 52.3115 6.81759 52.1994 6.81754Z" fill="#253B80" style="fill:#253B80;fill:color(display-p3 0.1451 0.2314 0.5020);fill-opacity:1;"/>
<path d="M64.1833 2.22764H56.8119C56.568 2.22774 56.3323 2.31485 56.147 2.4733C55.9616 2.63174 55.839 2.85112 55.801 3.09196L52.82 21.9916C52.8062 22.0792 52.8115 22.1687 52.8355 22.254C52.8596 22.3393 52.9019 22.4184 52.9594 22.4858C53.017 22.5532 53.0885 22.6073 53.169 22.6444C53.2495 22.6815 53.3371 22.7007 53.4257 22.7007H57.2084C57.3791 22.7005 57.5441 22.6393 57.6737 22.5283C57.8033 22.4173 57.889 22.2637 57.9154 22.0951L58.7614 16.7378C58.7992 16.4968 58.9218 16.2771 59.1071 16.1185C59.2924 15.9598 59.5283 15.8726 59.7723 15.8724H62.1045C66.9606 15.8724 69.7615 13.523 70.4944 8.86736C70.8252 6.8305 70.5073 5.23012 69.5535 4.10931C68.5071 2.87857 66.6502 2.22764 64.1833 2.22764ZM65.0336 9.13032C64.6317 11.775 62.611 11.775 60.656 11.775H59.5449L60.3262 6.83589C60.3486 6.69139 60.422 6.55967 60.5331 6.46459C60.6442 6.36951 60.7857 6.31734 60.9319 6.31752H61.4417C62.7715 6.31752 64.0281 6.31752 64.6769 7.07622C65.0638 7.52885 65.1813 8.20134 65.0336 9.13032ZM86.2137 9.04518H82.6864C82.5401 9.04478 82.3985 9.09687 82.2874 9.19199C82.1762 9.28712 82.1029 9.41896 82.0807 9.56355L81.9245 10.5507L81.6766 10.1929C80.9125 9.08398 79.2097 8.71325 77.5091 8.71325C73.6089 8.71325 70.2788 11.6672 69.63 15.811C69.2938 17.878 69.7712 19.8545 70.9438 21.2329C72.0215 22.5003 73.5583 23.0284 75.3893 23.0284C78.5319 23.0284 80.2745 21.0077 80.2745 21.0077L80.1172 21.9884C80.1031 22.0762 80.1083 22.1661 80.1324 22.2518C80.1565 22.3374 80.1989 22.4168 80.2567 22.4844C80.3145 22.5521 80.3863 22.6064 80.4672 22.6435C80.548 22.6807 80.636 22.6998 80.725 22.6997H83.9031C84.1471 22.6995 84.383 22.6122 84.5683 22.4536C84.7537 22.2949 84.8762 22.0753 84.914 21.8343L86.8226 9.75431C86.8361 9.66654 86.8305 9.57689 86.8061 9.49151C86.7817 9.40613 86.7391 9.32703 86.6813 9.25966C86.6234 9.19229 86.5517 9.13824 86.471 9.10121C86.3903 9.06419 86.3025 9.04508 86.2137 9.04518ZM81.294 15.9144C80.9556 17.9308 79.3531 19.2844 77.3119 19.2844C76.2892 19.2844 75.4679 18.9557 74.942 18.3328C74.4204 17.7142 74.2243 16.8337 74.3881 15.853C74.7082 13.8539 76.3333 12.4561 78.3433 12.4561C79.3455 12.4561 80.1603 12.7891 80.697 13.4174C81.2369 14.0522 81.4503 14.9381 81.294 15.9144ZM90.3747 2.74601L87.3496 21.9916C87.3357 22.0792 87.341 22.1687 87.3651 22.254C87.3892 22.3393 87.4314 22.4184 87.489 22.4858C87.5466 22.5532 87.618 22.6073 87.6986 22.6444C87.779 22.6815 87.8666 22.7007 87.9553 22.7007H90.9966C91.502 22.7007 91.9309 22.3343 92.0085 21.8353L94.9916 2.93677C95.0054 2.84917 95.0002 2.7596 94.9761 2.67424C94.952 2.58887 94.9098 2.50973 94.8522 2.44225C94.7947 2.37476 94.7232 2.32054 94.6427 2.28331C94.5622 2.24608 94.4746 2.22672 94.3859 2.22656H90.9804C90.8342 2.22708 90.6929 2.27964 90.5819 2.37482C90.471 2.47 90.3975 2.60159 90.3747 2.74601Z" fill="#179BD7" style="fill:#179BD7;fill:color(display-p3 0.0902 0.6078 0.8431);fill-opacity:1;"/>
</svg>
