<svg width="16" height="20" viewBox="0 0 16 20" fill="none" xmlns="http://www.w3.org/2000/svg">
<g clip-path="url(#clip0_5939_27294)">
<path d="M5.18476 18.5904L5.5032 16.5675L4.79378 16.551H1.40625L3.7604 1.6241C3.76798 1.57865 3.79125 1.5373 3.82617 1.50724C3.86111 1.47728 3.90563 1.46085 3.95165 1.46094H9.66348C11.5597 1.46094 12.8683 1.85553 13.5516 2.6344C13.8718 2.99973 14.0758 3.38156 14.1745 3.80168C14.278 4.24257 14.2799 4.76929 14.1788 5.41176L14.1715 5.45865V5.87028L14.4917 6.05172C14.7615 6.19483 14.9759 6.35865 15.1403 6.54622C15.4143 6.8586 15.5915 7.25563 15.6664 7.72632C15.7437 8.21042 15.7182 8.78647 15.5915 9.43867C15.4454 10.1889 15.2091 10.8422 14.89 11.3769C14.5965 11.8696 14.2226 12.2782 13.7787 12.5948C13.3549 12.8956 12.8513 13.124 12.282 13.2701C11.7302 13.4138 11.1012 13.4863 10.4112 13.4863H9.96673C9.64841 13.4869 9.34059 13.6002 9.09777 13.806C8.85483 14.0154 8.69403 14.3017 8.6447 14.6146L8.61123 14.7967L8.0486 18.362L8.02302 18.493C8.01631 18.5344 8.00474 18.5551 7.9877 18.5691C7.97121 18.5826 7.95059 18.5902 7.92924 18.5904H5.18476Z" fill="#253B80" style="fill:#253B80;fill:color(display-p3 0.1451 0.2314 0.5020);fill-opacity:1;"/>
<path d="M14.079 5.48047C14.0614 5.59244 14.0419 5.7041 14.0206 5.81541C13.2673 9.68278 10.6902 11.0187 7.39892 11.0187H5.72314C5.32065 11.0187 4.98143 11.3111 4.91876 11.7081L4.06071 17.1496L3.81777 18.692C3.777 18.9527 3.97791 19.1877 4.24098 19.1877H7.2132C7.56518 19.1877 7.86415 18.932 7.91959 18.5848L7.94879 18.4338L8.50846 14.8825L8.54436 14.6876C8.57076 14.5193 8.65644 14.3659 8.78597 14.2551C8.91549 14.1443 9.08033 14.0835 9.25076 14.0836H9.69527C12.575 14.0836 14.8292 12.9144 15.4881 9.53112C15.7634 8.11781 15.6208 6.93764 14.8925 6.10768C14.6721 5.85737 14.3987 5.64975 14.079 5.48047Z" fill="#179BD7" style="fill:#179BD7;fill:color(display-p3 0.0902 0.6078 0.8431);fill-opacity:1;"/>
<path d="M13.2863 5.16489C13.1688 5.13081 13.0502 5.10034 12.9307 5.07355C12.8058 5.04628 12.6801 5.02253 12.5538 5.00232C12.1019 4.92926 11.6069 4.89453 11.0765 4.89453H6.59958C6.4292 4.89438 6.26439 4.9552 6.13495 5.06599C6.00551 5.17678 5.91999 5.33023 5.89384 5.49859L4.94142 11.5308L4.91406 11.7068C4.97674 11.3097 5.31596 11.0174 5.71845 11.0174H7.39423C10.6855 11.0174 13.2626 9.68077 14.0159 5.81407C14.0384 5.69957 14.0573 5.5881 14.0743 5.47912C13.8837 5.37804 13.6773 5.29156 13.455 5.2179C13.3991 5.19931 13.3428 5.18164 13.2863 5.16489Z" fill="#222D65" style="fill:#222D65;fill:color(display-p3 0.1333 0.1765 0.3961);fill-opacity:1;"/>
<path d="M5.89344 5.50069C5.91118 5.38616 5.95662 5.27771 6.02581 5.18474C6.09501 5.09178 6.18586 5.01712 6.29047 4.96726C6.38682 4.92107 6.49232 4.89714 6.59917 4.89722H11.0761C11.6065 4.89722 12.1015 4.93194 12.5534 5.00501C12.6825 5.02572 12.8079 5.04947 12.9303 5.0763C13.0521 5.10366 13.1708 5.13411 13.2859 5.16758C13.3432 5.18468 13.3998 5.20231 13.4553 5.22C13.6775 5.29365 13.8839 5.38073 14.0745 5.48122C14.2986 4.05206 14.0727 3.07892 13.2999 2.19779C12.4481 1.22775 10.9105 0.8125 8.943 0.8125H3.23111C2.82921 0.8125 2.48637 1.10476 2.42429 1.50238L0.0451457 16.5828C-0.00174535 16.8812 0.228435 17.1503 0.529248 17.1503H4.05561L4.94102 11.5329L5.89344 5.50069Z" fill="#253B80" style="fill:#253B80;fill:color(display-p3 0.1451 0.2314 0.5020);fill-opacity:1;"/>
</g>
<defs>
<clipPath id="clip0_5939_27294">
<rect width="15.76" height="20" fill="white" style="fill:white;fill-opacity:1;"/>
</clipPath>
</defs>
</svg>
