<svg width="32" height="32" viewBox="0 0 32 32" fill="none" xmlns="http://www.w3.org/2000/svg">
<g clip-path="url(#clip0_6563_29142)">
<path d="M26.6667 0H5.33333C2.38781 0 0 2.38781 0 5.33333V26.6667C0 29.6122 2.38781 32 5.33333 32H26.6667C29.6122 32 32 29.6122 32 26.6667V5.33333C32 2.38781 29.6122 0 26.6667 0Z" fill="#2CA01C" style="fill:#2CA01C;fill:color(display-p3 0.1725 0.6275 0.1098);fill-opacity:1;"/>
<g clip-path="url(#clip1_6563_29142)">
<path d="M15.8333 31.6667C24.5778 31.6667 31.6667 24.5778 31.6667 15.8333C31.6667 7.08882 24.5778 0 15.8333 0C7.08882 0 0 7.08882 0 15.8333C0 24.5778 7.08882 31.6667 15.8333 31.6667Z" fill="#2CA01C" style="fill:#2CA01C;fill:color(display-p3 0.1725 0.6275 0.1098);fill-opacity:1;"/>
<path d="M3.82273 15.8329C3.82399 19.4125 6.71073 22.3233 10.2903 22.355H11.2061V19.9622H10.2903C8.07113 20.5677 5.78226 19.2592 5.17806 17.04C5.17299 17.0223 5.16919 17.0046 5.16413 16.9868C4.54219 14.7385 5.84433 12.4091 8.08506 11.7618H8.54233C9.11613 11.6364 9.71019 11.6364 10.284 11.7618H12.5083V24.4652C12.4969 25.8092 13.5773 26.9086 14.9213 26.9213V9.24625H10.3043C6.69933 9.26525 3.79359 12.2026 3.81259 15.8076V15.8088L3.82273 15.8329ZM21.3977 9.24878H20.4819V11.7682H21.3977C23.6119 11.164 25.8957 12.4686 26.4999 14.6815C26.5049 14.698 26.5087 14.7157 26.5138 14.7322C27.1319 16.9729 25.8336 19.2935 23.6017 19.9395H23.1445C22.5707 20.0648 21.9766 20.0648 21.4028 19.9395H19.1785V7.23732C19.1899 5.89338 18.1095 4.79392 16.7655 4.78125V22.4816H21.3825C25.0191 22.4247 27.9211 19.4315 27.8653 15.7949C27.8096 12.2381 24.9406 9.36785 21.3825 9.31212L21.3977 9.24878Z" fill="white" style="fill:white;fill-opacity:1;"/>
</g>
</g>
<defs>
<clipPath id="clip0_6563_29142">
<rect width="32" height="32" fill="white" style="fill:white;fill-opacity:1;"/>
</clipPath>
<clipPath id="clip1_6563_29142">
<rect width="31.6667" height="31.6667" fill="white" style="fill:white;fill-opacity:1;"/>
</clipPath>
</defs>
</svg>
