<svg xmlns="http://www.w3.org/2000/svg" width="48" height="48" viewBox="0 0 400 400">
<g>
<path d="M 158.25 332.25 C150.08,340.36 142.89,347.00 142.28,347.00 C141.66,347.00 137.78,343.29 133.67,338.75 C98.75,300.24 78.36,262.72 69.30,220.34 C66.71,208.21 66.56,206.07 66.56,181.50 C66.57,158.22 66.80,154.40 68.84,145.00 C77.69,104.08 97.76,75.89 128.28,61.50 C142.71,54.69 148.06,53.56 166.00,53.53 C184.36,53.49 189.90,54.69 204.00,61.72 C220.27,69.84 233.38,85.02 239.40,102.69 C247.62,126.89 244.63,151.55 229.52,183.96 C220.27,203.80 217.46,215.46 218.18,231.07 C218.76,243.63 221.91,250.85 230.17,258.50 C234.73,262.72 237.51,264.39 242.63,265.97 C250.41,268.37 252.73,268.45 259.86,266.55 C273.03,263.04 282.80,250.88 286.52,233.33 C288.39,224.50 288.36,203.83 286.46,193.50 C285.65,189.10 284.72,183.70 284.39,181.49 L 283.79 177.49 L 305.95 172.01 C323.75,167.61 328.26,166.80 328.92,167.88 C329.38,168.61 330.82,175.13 332.13,182.36 C334.13,193.46 334.49,198.61 334.43,215.50 C334.38,233.51 334.12,236.50 331.83,245.50 C324.64,273.77 309.70,294.24 288.10,305.39 C260.39,319.70 228.84,316.77 203.21,297.50 C190.05,287.60 179.80,272.30 174.39,254.45 C171.92,246.30 171.67,243.99 171.60,228.50 C171.48,204.44 174.84,190.39 187.00,164.06 C194.01,148.87 195.89,142.84 196.67,132.96 C197.81,118.50 192.79,108.48 181.64,103.00 C175.47,99.96 174.71,99.82 165.33,100.16 C156.69,100.47 154.64,100.91 148.39,103.84 C131.56,111.72 118.64,131.70 114.66,156.00 C108.97,190.79 114.19,222.18 131.17,255.23 C141.05,274.46 151.49,288.95 168.68,307.28 C173.80,312.73 174.85,314.39 174.08,315.78 C173.54,316.72 166.42,324.14 158.25,332.25 Z" fill="rgb(14,13,10)"/>
<path d="M 0.00 200.00 L 0.00 0.00 L 200.00 0.00 L 400.00 0.00 L 400.00 200.00 L 400.00 400.00 L 200.00 400.00 L 0.00 400.00 L 0.00 200.00 ZM 158.25 332.25 C166.42,324.14 173.54,316.72 174.08,315.78 C174.85,314.39 173.80,312.73 168.68,307.28 C151.49,288.95 141.05,274.46 131.17,255.23 C114.19,222.18 108.97,190.79 114.66,156.00 C118.64,131.70 131.56,111.72 148.39,103.84 C154.64,100.91 156.69,100.47 165.33,100.16 C174.71,99.82 175.47,99.96 181.64,103.00 C192.79,108.48 197.81,118.50 196.67,132.96 C195.89,142.84 194.01,148.87 187.00,164.06 C174.84,190.39 171.48,204.44 171.60,228.50 C171.67,243.99 171.92,246.30 174.39,254.45 C179.80,272.30 190.05,287.60 203.21,297.50 C228.84,316.77 260.39,319.70 288.10,305.39 C309.70,294.24 324.64,273.77 331.83,245.50 C334.12,236.50 334.38,233.51 334.43,215.50 C334.49,198.61 334.13,193.46 332.13,182.36 C330.82,175.13 329.38,168.61 328.92,167.88 C328.26,166.80 323.75,167.61 305.95,172.01 L 283.79 177.49 L 284.39 181.49 C284.72,183.70 285.65,189.10 286.46,193.50 C288.36,203.83 288.39,224.50 286.52,233.33 C282.80,250.88 273.03,263.04 259.86,266.55 C252.73,268.45 250.41,268.37 242.63,265.97 C237.51,264.39 234.73,262.72 230.17,258.50 C221.91,250.85 218.76,243.63 218.18,231.07 C217.46,215.46 220.27,203.80 229.52,183.96 C244.63,151.55 247.62,126.89 239.40,102.69 C233.38,85.02 220.27,69.84 204.00,61.72 C189.90,54.69 184.36,53.49 166.00,53.53 C148.06,53.56 142.71,54.69 128.28,61.50 C97.76,75.89 77.69,104.08 68.84,145.00 C66.80,154.40 66.57,158.22 66.56,181.50 C66.56,206.07 66.71,208.21 69.30,220.34 C78.36,262.72 98.75,300.24 133.67,338.75 C137.78,343.29 141.66,347.00 142.28,347.00 C142.89,347.00 150.08,340.36 158.25,332.25 Z" fill="rgb(253,212,2)"/>
</g>
</svg>