<svg width="21" height="22" viewBox="0 0 21 22" fill="none" xmlns="http://www.w3.org/2000/svg">
<g clip-path="url(#clip0_6044_26749)">
<path d="M10.25 13.5625C11.6652 13.5625 12.8125 12.4152 12.8125 11C12.8125 9.58477 11.6652 8.4375 10.25 8.4375C8.83477 8.4375 7.6875 9.58477 7.6875 11C7.6875 12.4152 8.83477 13.5625 10.25 13.5625Z" stroke="#9D9D9D" style="stroke:#9D9D9D;stroke:color(display-p3 0.6157 0.6157 0.6157);stroke-opacity:1;" stroke-width="2" stroke-linecap="round" stroke-linejoin="round"/>
<path d="M16.5682 13.5599C16.4545 13.8175 16.4206 14.1033 16.4708 14.3804C16.5211 14.6575 16.6532 14.9132 16.8501 15.1145L16.9014 15.1657C17.0602 15.3244 17.1862 15.5128 17.2722 15.7202C17.3581 15.9276 17.4024 16.1499 17.4024 16.3744C17.4024 16.5989 17.3581 16.8212 17.2722 17.0286C17.1862 17.236 17.0602 17.4244 16.9014 17.583C16.7427 17.7419 16.5543 17.8679 16.3469 17.9538C16.1395 18.0398 15.9172 18.0841 15.6927 18.0841C15.4682 18.0841 15.2459 18.0398 15.0385 17.9538C14.8311 17.8679 14.6427 17.7419 14.4841 17.583L14.4328 17.5318C14.2315 17.3349 13.9758 17.2028 13.6987 17.1525C13.4216 17.1023 13.1359 17.1362 12.8782 17.2499C12.6256 17.3582 12.4101 17.538 12.2584 17.7671C12.1066 17.9963 12.0252 18.2648 12.0241 18.5397V18.6849C12.0241 19.138 11.8441 19.5725 11.5237 19.8929C11.2033 20.2132 10.7688 20.3932 10.3157 20.3932C9.86265 20.3932 9.42813 20.2132 9.10775 19.8929C8.78738 19.5725 8.6074 19.138 8.6074 18.6849V18.608C8.60078 18.3253 8.50927 18.0511 8.34475 17.8211C8.18023 17.5911 7.95032 17.4158 7.6849 17.3182C7.42727 17.2045 7.14148 17.1706 6.86439 17.2208C6.58731 17.2711 6.33162 17.4032 6.13031 17.6001L6.07906 17.6514C5.9204 17.8102 5.73199 17.9362 5.52461 18.0222C5.31722 18.1081 5.09492 18.1524 4.87042 18.1524C4.64591 18.1524 4.42362 18.1081 4.21623 18.0222C4.00884 17.9362 3.82043 17.8102 3.66177 17.6514C3.50294 17.4927 3.37693 17.3043 3.29096 17.0969C3.20499 16.8895 3.16074 16.6672 3.16074 16.4427C3.16074 16.2182 3.20499 15.9959 3.29096 15.7885C3.37693 15.5811 3.50294 15.3927 3.66177 15.2341L3.71302 15.1828C3.90994 14.9815 4.04203 14.7258 4.09227 14.4487C4.14252 14.1716 4.1086 13.8859 3.9949 13.6282C3.88662 13.3756 3.70683 13.1601 3.47767 13.0084C3.2485 12.8566 2.97996 12.7752 2.7051 12.7741H2.5599C2.10682 12.7741 1.6723 12.5941 1.35192 12.2737C1.03155 11.9533 0.851563 11.5188 0.851562 11.0657C0.851562 10.6127 1.03155 10.1781 1.35192 9.85775C1.6723 9.53738 2.10682 9.3574 2.5599 9.3574H2.63677C2.9195 9.35078 3.19369 9.25927 3.42371 9.09475C3.65374 8.93023 3.82894 8.70032 3.92656 8.4349C4.04026 8.17727 4.07418 7.89148 4.02394 7.61439C3.9737 7.33731 3.8416 7.08162 3.64469 6.88031L3.59344 6.82906C3.4346 6.6704 3.3086 6.48199 3.22263 6.27461C3.13666 6.06722 3.09241 5.84492 3.09241 5.62042C3.09241 5.39591 3.13666 5.17362 3.22263 4.96623C3.3086 4.75884 3.4346 4.57043 3.59344 4.41177C3.7521 4.25294 3.94051 4.12693 4.14789 4.04096C4.35528 3.95499 4.57758 3.91074 4.80208 3.91074C5.02658 3.91074 5.24888 3.95499 5.45627 4.04096C5.66366 4.12693 5.85207 4.25294 6.01073 4.41177L6.06198 4.46302C6.26329 4.65994 6.51897 4.79203 6.79606 4.84227C7.07315 4.89252 7.35893 4.8586 7.61656 4.7449H7.6849C7.93753 4.63662 8.15299 4.45683 8.30476 4.22767C8.45652 3.9985 8.53797 3.72996 8.53906 3.4551V3.3099C8.53906 2.85682 8.71905 2.4223 9.03942 2.10192C9.3598 1.78155 9.79432 1.60156 10.2474 1.60156C10.7005 1.60156 11.135 1.78155 11.4554 2.10192C11.7757 2.4223 11.9557 2.85682 11.9557 3.3099V3.38677C11.9568 3.66163 12.0383 3.93017 12.19 4.15934C12.3418 4.3885 12.5573 4.56829 12.8099 4.67656C13.0675 4.79026 13.3533 4.82418 13.6304 4.77394C13.9075 4.7237 14.1632 4.5916 14.3645 4.39469L14.4157 4.34344C14.5744 4.1846 14.7628 4.0586 14.9702 3.97263C15.1776 3.88666 15.3999 3.84241 15.6244 3.84241C15.8489 3.84241 16.0712 3.88666 16.2786 3.97263C16.486 4.0586 16.6744 4.1846 16.833 4.34344C16.9919 4.5021 17.1179 4.69051 17.2038 4.89789C17.2898 5.10528 17.3341 5.32758 17.3341 5.55208C17.3341 5.77658 17.2898 5.99888 17.2038 6.20627C17.1179 6.41366 16.9919 6.60207 16.833 6.76073L16.7818 6.81198C16.5849 7.01329 16.4528 7.26897 16.4025 7.54606C16.3523 7.82315 16.3862 8.10893 16.4999 8.36656V8.4349C16.6082 8.68753 16.788 8.90299 17.0171 9.05476C17.2463 9.20652 17.5148 9.28797 17.7897 9.28906H17.9349C18.388 9.28906 18.8225 9.46905 19.1429 9.78942C19.4632 10.1098 19.6432 10.5443 19.6432 10.9974C19.6432 11.4505 19.4632 11.885 19.1429 12.2054C18.8225 12.5257 18.388 12.7057 17.9349 12.7057H17.858C17.5832 12.7068 17.3146 12.7883 17.0855 12.94C16.8563 13.0918 16.6765 13.3073 16.5682 13.5599V13.5599Z" stroke="#9D9D9D" style="stroke:#9D9D9D;stroke:color(display-p3 0.6157 0.6157 0.6157);stroke-opacity:1;" stroke-width="2" stroke-linecap="round" stroke-linejoin="round"/>
</g>
<defs>
<clipPath id="clip0_6044_26749">
<rect width="20.5" height="20.5" fill="white" style="fill:white;fill-opacity:1;" transform="translate(0 0.75)"/>
</clipPath>
</defs>
</svg>
