<svg width="81" height="33" viewBox="0 0 81 33" fill="none" xmlns="http://www.w3.org/2000/svg">
    <rect width="80.3381" height="32.6691" rx="5.33454" fill="#1E1E1E" style="fill:#1E1E1E;fill:color(display-p3 0.1176 0.1176 0.1176);fill-opacity:1;"/>
    <rect x="0.666817" y="0.666817" width="79.0045" height="31.3354" rx="4.66772" stroke="white" stroke-opacity="0.1" style="stroke:white;stroke-opacity:0.1;" stroke-width="1.33363"/>
    <path d="M14.0026 22.9993H18.0026C21.3359 22.9993 22.6693 21.666 22.6693 18.3327V14.3327C22.6693 10.9993 21.3359 9.66602 18.0026 9.66602H14.0026C10.6693 9.66602 9.33594 10.9993 9.33594 14.3327V18.3327C9.33594 21.666 10.6693 22.9993 14.0026 22.9993Z" stroke="white" style="stroke:white;stroke-opacity:1;" stroke-width="1.01489" stroke-linecap="round" stroke-linejoin="round"/>
    <path d="M15.0547 13.4551H17.8814V16.2884" stroke="white" style="stroke:white;stroke-opacity:1;" stroke-width="1.01489" stroke-linecap="round" stroke-linejoin="round"/>
    <path d="M17.8827 13.4551L14.1094 17.2284" stroke="white" style="stroke:white;stroke-opacity:1;" stroke-width="1.01489" stroke-linecap="round" stroke-linejoin="round"/>
    <path d="M12 19.3418C14.5933 20.2085 17.4067 20.2085 20 19.3418" stroke="white" style="stroke:white;stroke-opacity:1;" stroke-width="1.01489" stroke-linecap="round" stroke-linejoin="round"/>
    <path d="M34.169 21.526C33.3475 21.526 32.6273 21.382 32.0085 21.0939C31.3897 20.7952 30.9096 20.3791 30.5682 19.8456C30.2268 19.3122 30.0561 18.6881 30.0561 17.9732H31.7365C31.7471 18.3787 31.8432 18.7521 32.0245 19.0935C32.2166 19.4242 32.4886 19.6909 32.8407 19.8937C33.2035 20.0857 33.6462 20.1817 34.169 20.1817C34.6171 20.1817 35.0012 20.107 35.3213 19.9577C35.652 19.8083 35.9028 19.6056 36.0735 19.3495C36.2442 19.0828 36.3295 18.7787 36.3295 18.4373C36.3295 18.0426 36.2388 17.7172 36.0575 17.4611C35.8761 17.2051 35.6307 16.997 35.3213 16.837C35.0226 16.6663 34.6705 16.5169 34.265 16.3889C33.8703 16.2608 33.4542 16.1221 33.0168 15.9728C32.1312 15.6847 31.4698 15.3113 31.0323 14.8525C30.6056 14.3938 30.3922 13.7963 30.3922 13.0601C30.3922 12.4306 30.5415 11.8865 30.8403 11.4278C31.139 10.9583 31.5551 10.5956 32.0886 10.3395C32.6327 10.0728 33.2728 9.93942 34.009 9.93942C34.7345 9.93942 35.3693 10.0728 35.9134 10.3395C36.4575 10.6062 36.8843 10.9743 37.1937 11.4438C37.5031 11.9132 37.6578 12.4627 37.6578 13.0921H35.9614C35.9614 12.8041 35.8867 12.5213 35.7374 12.2439C35.588 11.9665 35.364 11.7425 35.0652 11.5718C34.7665 11.3904 34.3984 11.2997 33.961 11.2997C33.5982 11.2891 33.2728 11.3477 32.9848 11.4758C32.6967 11.6038 32.4726 11.7905 32.3126 12.0359C32.1526 12.2813 32.0726 12.5747 32.0726 12.9161C32.0726 13.2575 32.1419 13.5349 32.2806 13.7483C32.43 13.951 32.6433 14.127 32.9207 14.2764C33.1981 14.4258 33.5182 14.5645 33.881 14.6925C34.2544 14.8098 34.6651 14.9432 35.1132 15.0926C35.668 15.274 36.1588 15.498 36.5856 15.7647C37.023 16.0208 37.3644 16.3569 37.6098 16.773C37.8659 17.1784 37.9939 17.7012 37.9939 18.3413C37.9939 18.8961 37.8499 19.4136 37.5618 19.8937C37.2737 20.3738 36.847 20.7685 36.2815 21.0779C35.716 21.3767 35.0119 21.526 34.169 21.526ZM39.6569 21.334V9.81139H41.2572V14.5805C41.524 14.111 41.8921 13.7429 42.3615 13.4762C42.8416 13.2095 43.3697 13.0761 43.9459 13.0761C44.586 13.0761 45.1355 13.2095 45.5942 13.4762C46.053 13.7323 46.4051 14.1217 46.6505 14.6445C46.8959 15.1566 47.0185 15.8021 47.0185 16.5809V21.334H45.4342V16.7409C45.4342 15.9941 45.2742 15.4287 44.9541 15.0446C44.634 14.6498 44.1592 14.4524 43.5298 14.4524C43.103 14.4524 42.7189 14.5538 42.3775 14.7565C42.0361 14.9592 41.764 15.2579 41.5613 15.6527C41.3586 16.0368 41.2572 16.5062 41.2572 17.061V21.334H39.6569ZM51.5778 21.526C50.9163 21.526 50.3669 21.414 49.9295 21.19C49.492 20.9659 49.1666 20.6672 48.9532 20.2937C48.7399 19.9097 48.6332 19.4989 48.6332 19.0615C48.6332 18.528 48.7719 18.0746 49.0493 17.7012C49.3267 17.3171 49.7214 17.0237 50.2335 16.821C50.7456 16.6183 51.3591 16.5169 52.0739 16.5169H54.1704C54.1704 16.0475 54.1011 15.658 53.9624 15.3486C53.8237 15.0392 53.6156 14.8098 53.3382 14.6605C53.0715 14.5004 52.7301 14.4204 52.314 14.4204C51.8339 14.4204 51.4231 14.5378 51.0817 14.7725C50.7403 14.9966 50.5269 15.3326 50.4416 15.7807H48.8412C48.9052 15.2153 49.0973 14.7352 49.4173 14.3404C49.7481 13.935 50.1695 13.6256 50.6816 13.4122C51.1937 13.1881 51.7379 13.0761 52.314 13.0761C53.0715 13.0761 53.7063 13.2095 54.2184 13.4762C54.7305 13.7429 55.1146 14.1217 55.3707 14.6125C55.6374 15.0926 55.7708 15.6687 55.7708 16.3409V21.334H54.3785L54.2504 19.9737C54.1331 20.1871 53.9944 20.3898 53.8343 20.5818C53.6743 20.7739 53.4823 20.9392 53.2582 21.0779C53.0448 21.2166 52.7941 21.3233 52.506 21.398C52.2286 21.4834 51.9192 21.526 51.5778 21.526ZM51.8819 20.2297C52.2233 20.2297 52.5327 20.1604 52.8101 20.0217C53.0875 19.883 53.3222 19.6963 53.5143 19.4616C53.717 19.2162 53.8663 18.9441 53.9624 18.6454C54.0691 18.336 54.1277 18.0212 54.1384 17.7012V17.6532H52.234C51.7752 17.6532 51.4018 17.7118 51.1137 17.8292C50.8363 17.9359 50.6336 18.0853 50.5056 18.2773C50.3776 18.4693 50.3135 18.6934 50.3135 18.9494C50.3135 19.2162 50.3722 19.4456 50.4896 19.6376C50.6176 19.819 50.799 19.963 51.0337 20.0697C51.2684 20.1764 51.5512 20.2297 51.8819 20.2297ZM57.6534 21.334V13.2682H59.0938L59.2378 14.7885C59.4192 14.4258 59.6539 14.1217 59.942 13.8763C60.23 13.6202 60.5661 13.4229 60.9502 13.2842C61.3449 13.1455 61.793 13.0761 62.2945 13.0761V14.7725H61.7184C61.3876 14.7725 61.0729 14.8152 60.7741 14.9005C60.4754 14.9752 60.2087 15.1086 59.974 15.3006C59.7499 15.4927 59.5739 15.7541 59.4458 16.0848C59.3178 16.4155 59.2538 16.8263 59.2538 17.3171V21.334H57.6534ZM67.0186 21.526C66.2504 21.526 65.5676 21.35 64.9701 20.9979C64.3726 20.6458 63.9032 20.1551 63.5618 19.5256C63.231 18.8961 63.0657 18.1653 63.0657 17.3331C63.0657 16.4796 63.231 15.7381 63.5618 15.1086C63.9032 14.4684 64.3726 13.9723 64.9701 13.6202C65.5676 13.2575 66.2611 13.0761 67.0506 13.0761C67.8401 13.0761 68.5176 13.2522 69.083 13.6042C69.6485 13.9563 70.0859 14.4258 70.3953 15.0126C70.7047 15.5887 70.8594 16.2288 70.8594 16.933C70.8594 17.0397 70.8541 17.157 70.8434 17.2851C70.8434 17.4024 70.8381 17.5358 70.8274 17.6852H64.2339V16.5489H69.2591C69.2271 15.8768 69.003 15.354 68.5869 14.9806C68.1708 14.5965 67.6534 14.4044 67.0346 14.4044C66.5971 14.4044 66.197 14.5058 65.8343 14.7085C65.4715 14.9005 65.1781 15.1886 64.9541 15.5727C64.7407 15.9461 64.634 16.4209 64.634 16.997V17.4451C64.634 18.0426 64.7407 18.5494 64.9541 18.9655C65.1781 19.3709 65.4715 19.6803 65.8343 19.8937C66.197 20.0964 66.5918 20.1977 67.0186 20.1977C67.5307 20.1977 67.9521 20.0857 68.2828 19.8617C68.6136 19.6376 68.859 19.3335 69.019 18.9494H70.6194C70.4807 19.4402 70.2459 19.883 69.9152 20.2777C69.5845 20.6618 69.1737 20.9659 68.6829 21.19C68.2028 21.414 67.648 21.526 67.0186 21.526Z" fill="white" style="fill:white;fill-opacity:1;"/>
</svg>