<svg width="32" height="32" viewBox="0 0 32 32" fill="none" xmlns="http://www.w3.org/2000/svg">
<path d="M29.294 14.5077L19.4319 24.3698C19.294 24.5079 19.1182 24.6019 18.9268 24.64C18.7354 24.6781 18.537 24.6586 18.3567 24.5839C18.1764 24.5092 18.0223 24.3827 17.9139 24.2204C17.8056 24.058 17.7478 23.8672 17.748 23.672V18.7694C10.7089 19.1688 5.88268 23.7337 4.52788 25.1797C4.31514 25.4069 4.03617 25.5612 3.73066 25.6207C3.42515 25.6801 3.10866 25.6417 2.82625 25.5109C2.54384 25.38 2.30989 25.1635 2.15769 24.892C2.00549 24.6205 1.9428 24.3079 1.97854 23.9987C2.43589 20.0218 4.61417 16.1966 8.11274 13.2281C11.0183 10.7626 14.5502 9.19824 17.748 8.92456V3.94792C17.7478 3.75275 17.8056 3.56193 17.9139 3.39961C18.0223 3.23728 18.1764 3.11076 18.3567 3.03605C18.537 2.96134 18.7354 2.94181 18.9268 2.97993C19.1182 3.01805 19.294 3.1121 19.4319 3.25018L29.294 13.1122C29.3857 13.2038 29.4584 13.3126 29.508 13.4323C29.5577 13.552 29.5832 13.6804 29.5832 13.81C29.5832 13.9396 29.5577 14.0679 29.508 14.1876C29.4584 14.3074 29.3857 14.4161 29.294 14.5077Z" fill="#48C884" style="fill:#48C884;fill:color(display-p3 0.2824 0.7843 0.5176);fill-opacity:1;"/>
</svg>
