<?xml version="1.0" encoding="UTF-8"?>
<svg id="Layer_2" xmlns="http://www.w3.org/2000/svg" viewBox="0 0 198.66 198.66">
  <defs>
    <style>
      .cls-1 {
        fill: #231f20;
      }
    </style>
  </defs>
  <g id="Layer_1-2" data-name="Layer_1">
    <path class="cls-1" d="M181.32,133.24c5.58,2.31,8.28,8.75,5.36,14.03-10.1,18.29-25.77,33.02-44.88,41.97-22.43,10.5-47.97,12.28-71.64,4.99-23.67-7.29-43.77-23.14-56.35-44.43C1.22,128.51-2.96,103.29,2.09,79.09c5.05-24.21,18.96-45.66,39.02-60.18C61.16,4.4,85.92-2.13,110.55.61c24.62,2.74,47.33,14.54,63.7,33.11,13.94,15.82,22.42,35.57,24.37,56.36.56,6.01-4.48,10.83-10.53,10.73-6.05-.1-10.78-5.1-11.53-11.08-1.92-15.34-8.41-29.84-18.75-41.57-12.76-14.48-30.48-23.69-49.69-25.82-19.2-2.14-38.52,2.95-54.16,14.27-15.64,11.32-26.5,28.06-30.43,46.94-3.94,18.88-.68,38.55,9.14,55.16,9.82,16.61,25.49,28.97,43.96,34.66,18.46,5.69,38.39,4.3,55.88-3.89,14.17-6.64,25.92-17.35,33.81-30.65,3.08-5.19,9.42-7.89,15.01-5.57Z"/>
  </g>
</svg>