<svg width="29" height="22" viewBox="0 0 29 22" fill="none" xmlns="http://www.w3.org/2000/svg">
<path d="M27.6806 14.0175V14.005C27.6784 13.9956 27.6755 13.9864 27.6718 13.9774C27.5887 13.7506 27.4921 13.529 27.3825 13.3137L22.1768 1.4821C22.1266 1.36814 22.0557 1.26452 21.9676 1.17655C21.5955 0.804335 21.1537 0.509076 20.6674 0.307632C20.1812 0.106187 19.66 0.00250463 19.1337 0.00250463C18.6074 0.00250463 18.0862 0.106187 17.6 0.307632C17.1137 0.509076 16.6719 0.804335 16.2998 1.17655C16.1126 1.36397 16.0072 1.61792 16.0067 1.88284V5.01356H11.9994V1.88284C11.9995 1.75124 11.9737 1.6209 11.9234 1.49929C11.8731 1.37767 11.7994 1.26715 11.7064 1.17404C11.3343 0.80183 10.8924 0.506571 10.4062 0.305127C9.91994 0.103683 9.39877 0 8.87245 0C8.34612 0 7.82495 0.103683 7.3387 0.305127C6.85245 0.506571 6.41064 0.80183 6.03852 1.17404C5.95043 1.26202 5.8795 1.36564 5.82938 1.4796L0.62863 13.3137C0.51908 13.529 0.422482 13.7506 0.339351 13.9774C0.335867 13.986 0.332939 13.9948 0.330585 14.0037C0.330585 14.0037 0.330585 14.0138 0.330585 14.0175C-0.186624 15.5119 -0.0940906 17.15 0.588131 18.5766C1.27035 20.0033 2.4873 21.1037 3.97524 21.6392C5.46318 22.1748 7.10223 22.1024 8.53719 21.4378C9.97215 20.7732 11.0874 19.5699 11.6413 18.0887C11.8851 17.4234 12.0081 16.7198 12.0044 16.0112V7.01722H16.0117V16.0124C16.0081 16.721 16.131 17.4246 16.3749 18.09C16.9288 19.5712 18.044 20.7745 19.479 21.4391C20.9139 22.1037 22.553 22.1761 24.0409 21.6405C25.5289 21.1049 26.7458 20.0046 27.428 18.5779C28.1103 17.1512 28.2028 15.5132 27.6856 14.0188L27.6806 14.0175ZM9.75406 17.3987C9.38411 18.3858 8.64011 19.1874 7.68326 19.6298C6.72641 20.0721 5.63379 20.1197 4.64214 19.762C3.6505 19.4044 2.8397 18.6705 2.38544 17.7192C1.93118 16.7679 1.87004 15.676 2.21528 14.68L2.44194 14.1628C2.85855 13.3709 3.5282 12.7412 4.3442 12.3741C5.16021 12.0069 6.07561 11.9235 6.94456 12.1369C7.81351 12.3504 8.58601 12.8486 9.13898 13.5521C9.69194 14.2556 9.99355 15.1239 9.99575 16.0187V16.0337C9.99568 16.501 9.91388 16.9646 9.75406 17.4037V17.3987ZM23.3952 19.7993C22.7895 20.0211 22.1392 20.0933 21.4995 20.0099C20.8599 19.9265 20.2498 19.6899 19.7212 19.3202C19.1926 18.9505 18.761 18.4587 18.4632 17.8866C18.1653 17.3144 18.01 16.6788 18.0104 16.0337V16.0199C18.0137 15.1256 18.3161 14.258 18.8695 13.5554C19.4228 12.8527 20.1953 12.3554 21.064 12.1426C21.9327 11.9297 22.8476 12.0136 23.6631 12.3808C24.4786 12.748 25.1478 13.3775 25.5642 14.169L25.7909 14.6862C26.1472 15.6822 26.0953 16.7786 25.6465 17.7364C25.1978 18.6942 24.3885 19.4357 23.3952 19.7993Z" fill="#48C884" style="fill:#48C884;fill:color(display-p3 0.2824 0.7843 0.5176);fill-opacity:1;"/>
</svg>
