<svg width="24" height="24" viewBox="0 0 24 24" fill="none" xmlns="http://www.w3.org/2000/svg">
<g clip-path="url(#clip0_6992_30412)">
<mask id="mask0_6992_30412" style="mask-type:luminance" maskUnits="userSpaceOnUse" x="0" y="0" width="24" height="24">
<path d="M24 0H0V24H24V0Z" fill="white" style="fill:white;fill-opacity:1;"/>
</mask>
<g mask="url(#mask0_6992_30412)">
<path d="M19.9891 1.48424e-07H4.0109C2.94715 1.48424e-07 1.92696 0.422576 1.17477 1.17477C0.422576 1.92696 0 2.94715 0 4.0109V19.9891C0 21.0528 0.422576 22.073 1.17477 22.8252C1.92696 23.5775 2.94715 24 4.0109 24H19.9891C20.5158 24.0001 21.0374 23.8963 21.524 23.6948C22.0108 23.4932 22.453 23.1978 22.8254 22.8254C23.1978 22.453 23.4932 22.0108 23.6948 21.524C23.8963 21.0374 24.0001 20.5158 24 19.9891V4.0109C24.0001 3.48415 23.8964 2.96252 23.695 2.47583C23.4935 1.98914 23.198 1.54692 22.8256 1.17445C22.4531 0.801972 22.0109 0.506537 21.5242 0.305021C21.0374 0.103504 20.5158 -0.000143168 19.9891 1.48424e-07ZM19.6368 18.3725C19.6366 18.708 19.5032 19.0297 19.266 19.2668C19.0286 19.5041 18.7069 19.6373 18.3714 19.6373H5.63131C5.46514 19.6374 5.30059 19.6048 5.14704 19.5412C4.9935 19.4777 4.85396 19.3846 4.73641 19.2671C4.61887 19.1496 4.52561 19.0102 4.46195 18.8567C4.39829 18.7032 4.36549 18.5387 4.36542 18.3725V5.63185C4.36535 5.46559 4.39805 5.30095 4.46164 5.14734C4.52522 4.99372 4.61846 4.85414 4.73603 4.73658C4.85359 4.61902 4.99318 4.52578 5.14679 4.46218C5.3004 4.39859 5.46505 4.3659 5.63131 4.36597H18.3709C18.5371 4.36597 18.7016 4.39871 18.8552 4.46233C19.0088 4.52596 19.1483 4.61921 19.2658 4.73677C19.3834 4.85432 19.4765 4.99388 19.5401 5.14746C19.6036 5.30104 19.6363 5.46564 19.6362 5.63185L19.6368 18.3725Z" fill="#2E3B4E" style="fill:#2E3B4E;fill:color(display-p3 0.1804 0.2314 0.3059);fill-opacity:1;"/>
<path d="M9.45304 15.2726C9.25989 15.272 9.07486 15.1947 8.93864 15.0578C8.80242 14.9209 8.72613 14.7353 8.72656 14.5423V9.45686C8.72656 9.0538 9.05163 8.72656 9.45304 8.72656H14.5461C14.9486 8.72656 15.2726 9.0538 15.2726 9.45686V14.5423C15.2726 14.9447 14.9486 15.2726 14.5461 15.2726H9.45304Z" fill="#2E3B4E" style="fill:#2E3B4E;fill:color(display-p3 0.1804 0.2314 0.3059);fill-opacity:1;"/>
</g>
</g>
<defs>
<clipPath id="clip0_6992_30412">
<rect width="24" height="24" fill="white" style="fill:white;fill-opacity:1;"/>
</clipPath>
</defs>
</svg>
