<svg width="24" height="24" viewBox="0 0 24 24" fill="none" xmlns="http://www.w3.org/2000/svg">
<path d="M7.94502 7.8749H15.2047M7.94502 11.4128H15.2047M7.94502 14.9502H15.2047M4.5 20.426V6.07149C4.5 4.84543 5.67511 3.85156 7.125 3.85156H16.0663C17.5157 3.85156 18.6908 4.84543 18.6908 6.07149V20.4289C18.6908 20.5615 18.522 20.6448 18.3855 20.5797L15.3648 19.1421C15.3033 19.1129 15.2288 19.1124 15.1669 19.1406L11.7921 20.6822C11.733 20.7095 11.6624 20.7099 11.6024 20.6846L7.96146 19.1368C7.90002 19.1109 7.82746 19.1124 7.76747 19.1416L4.8072 20.5764C4.67029 20.6429 4.5 20.5591 4.5 20.426Z" stroke="#48C884" style="stroke:#48C884;stroke:color(display-p3 0.2824 0.7843 0.5176);stroke-opacity:1;" stroke-width="1.7453" stroke-linecap="round"/>
</svg>
