<svg width="61" height="26" viewBox="0 0 61 26" fill="none" xmlns="http://www.w3.org/2000/svg">
<g clip-path="url(#clip0_6898_30612)">
<path fill-rule="evenodd" clip-rule="evenodd" d="M60.996 13.2242C60.996 8.84998 58.8949 5.39844 54.879 5.39844C50.8462 5.39844 48.4062 8.84998 48.4062 13.19C48.4062 18.3332 51.2868 20.9304 55.4212 20.9304C57.4376 20.9304 58.9626 20.469 60.1149 19.8197V16.4024C58.9626 16.9833 57.641 17.3421 55.9635 17.3421C54.3199 17.3421 52.8626 16.7612 52.6762 14.7449H60.9621C60.9621 14.5228 60.996 13.6343 60.996 13.2242ZM52.6254 11.601C52.6254 9.67015 53.7946 8.86707 54.8621 8.86707C55.8957 8.86707 56.9971 9.67015 56.9971 11.601H52.6254Z" fill="#6664FC" style="fill:#6664FC;fill:color(display-p3 0.4000 0.3922 0.9882);fill-opacity:1;"/>
<path fill-rule="evenodd" clip-rule="evenodd" d="M41.8707 5.39844C40.2102 5.39844 39.1427 6.18443 38.5496 6.73121L38.3293 5.67183H34.6016V25.5951L38.8377 24.6895L38.8546 19.8539C39.4646 20.2981 40.3627 20.9304 41.8538 20.9304C44.8868 20.9304 47.6488 18.4698 47.6488 13.0533C47.6318 8.09816 44.836 5.39844 41.8707 5.39844ZM40.8541 17.1712C39.8543 17.1712 39.2613 16.8124 38.8546 16.3682L38.8377 10.029C39.2782 9.53345 39.8882 9.19171 40.8541 9.19171C42.396 9.19171 43.4635 10.9346 43.4635 13.1729C43.4635 15.4626 42.413 17.1712 40.8541 17.1712Z" fill="#6664FC" style="fill:#6664FC;fill:color(display-p3 0.4000 0.3922 0.9882);fill-opacity:1;"/>
<path fill-rule="evenodd" clip-rule="evenodd" d="M28.7734 4.39132L33.0265 3.46863V0L28.7734 0.905602V4.39132Z" fill="#6664FC" style="fill:#6664FC;fill:color(display-p3 0.4000 0.3922 0.9882);fill-opacity:1;"/>
<path d="M33.0265 5.6875H28.7734V20.6385H33.0265V5.6875Z" fill="#6664FC" style="fill:#6664FC;fill:color(display-p3 0.4000 0.3922 0.9882);fill-opacity:1;"/>
<path fill-rule="evenodd" clip-rule="evenodd" d="M24.2124 6.95667L23.9413 5.69224H20.2812V20.6432H24.5174V10.5107C25.5171 9.19505 27.2115 9.43426 27.7368 9.62222V5.69224C27.1946 5.4872 25.2121 5.11129 24.2124 6.95667Z" fill="#6664FC" style="fill:#6664FC;fill:color(display-p3 0.4000 0.3922 0.9882);fill-opacity:1;"/>
<path fill-rule="evenodd" clip-rule="evenodd" d="M15.7451 1.98438L11.6107 2.87289L11.5938 16.5594C11.5938 19.0883 13.4746 20.9507 15.9824 20.9507C17.3718 20.9507 18.3885 20.6944 18.9477 20.3869V16.9183C18.4054 17.1404 15.7282 17.9264 15.7282 15.3975V9.33171H18.9477V5.69222H15.7282L15.7451 1.98438Z" fill="#6664FC" style="fill:#6664FC;fill:color(display-p3 0.4000 0.3922 0.9882);fill-opacity:1;"/>
<path fill-rule="evenodd" clip-rule="evenodd" d="M4.28694 10.029C4.28694 9.36258 4.82917 9.10628 5.72722 9.10628C7.015 9.10628 8.64167 9.49928 9.92944 10.1998V6.18443C8.52306 5.62057 7.13361 5.39844 5.72722 5.39844C2.2875 5.39844 0 7.20964 0 10.234C0 14.95 6.43889 14.1982 6.43889 16.2315C6.43889 17.0175 5.76111 17.2738 4.81222 17.2738C3.40583 17.2738 1.60972 16.6928 0.186389 15.9068V19.9735C1.76222 20.657 3.355 20.9474 4.81222 20.9474C8.33667 20.9474 10.7597 19.1875 10.7597 16.129C10.7428 11.0371 4.28694 11.9427 4.28694 10.029Z" fill="#6664FC" style="fill:#6664FC;fill:color(display-p3 0.4000 0.3922 0.9882);fill-opacity:1;"/>
</g>
<defs>
<clipPath id="clip0_6898_30612">
<rect width="61" height="25.6303" fill="white" style="fill:white;fill-opacity:1;"/>
</clipPath>
</defs>
</svg>
