<svg xmlns="http://www.w3.org/2000/svg" width="20" height="21" viewBox="0 0 20 21" fill="none">
<path d="M10.4948 10.3346C10.4948 9.8744 10.1217 9.5013 9.66146 9.5013C9.20122 9.5013 8.82812 9.8744 8.82812 10.3346C8.82812 10.7949 9.20122 11.168 9.66146 11.168C10.1217 11.168 10.4948 10.7949 10.4948 10.3346Z" fill="#808080" stroke="#808080" style="fill:#808080;fill:color(display-p3 0.5020 0.5020 0.5020);fill-opacity:1;stroke:#808080;stroke:color(display-p3 0.5020 0.5020 0.5020);stroke-opacity:1;" stroke-width="2" stroke-linecap="round" stroke-linejoin="round"/>
<path d="M4.66667 10.3346C4.66667 9.8744 4.29357 9.5013 3.83333 9.5013C3.3731 9.5013 3 9.8744 3 10.3346C3 10.7949 3.3731 11.168 3.83333 11.168C4.29357 11.168 4.66667 10.7949 4.66667 10.3346Z" fill="#808080" stroke="#808080" style="fill:#808080;fill:color(display-p3 0.5020 0.5020 0.5020);fill-opacity:1;stroke:#808080;stroke:color(display-p3 0.5020 0.5020 0.5020);stroke-opacity:1;" stroke-width="2" stroke-linecap="round" stroke-linejoin="round"/>
<path d="M16.3307 10.3346C16.3307 9.8744 15.9576 9.5013 15.4974 9.5013C15.0372 9.5013 14.6641 9.8744 14.6641 10.3346C14.6641 10.7949 15.0372 11.168 15.4974 11.168C15.9576 11.168 16.3307 10.7949 16.3307 10.3346Z" fill="#808080" stroke="#808080" style="fill:#808080;fill:color(display-p3 0.5020 0.5020 0.5020);fill-opacity:1;stroke:#808080;stroke:color(display-p3 0.5020 0.5020 0.5020);stroke-opacity:1;" stroke-width="2" stroke-linecap="round" stroke-linejoin="round"/>
</svg>