<svg width="32" height="32" viewBox="0 0 32 32" fill="none" xmlns="http://www.w3.org/2000/svg">
<g clip-path="url(#clip0_6563_29137)">
<path d="M26.6667 0H5.33333C2.38781 0 0 2.38781 0 5.33333V26.6667C0 29.6122 2.38781 32 5.33333 32H26.6667C29.6122 32 32 29.6122 32 26.6667V5.33333C32 2.38781 29.6122 0 26.6667 0Z" fill="#13B5EA" style="fill:#13B5EA;fill:color(display-p3 0.0745 0.7098 0.9176);fill-opacity:1;"/>
<path d="M8.1745 16.2919L10.7288 13.7256C10.8053 13.6376 10.8454 13.5238 10.841 13.4073C10.8366 13.2908 10.788 13.1803 10.705 13.0984C10.6221 13.0164 10.511 12.9692 10.3945 12.9662C10.2779 12.9632 10.1646 13.0047 10.0776 13.0823L7.52459 15.6373L4.96162 13.0777C4.87508 12.9923 4.75817 12.9448 4.6366 12.9456C4.51503 12.9464 4.39877 12.9955 4.31338 13.082C4.22799 13.1685 4.18048 13.2854 4.18129 13.407C4.1821 13.5286 4.23118 13.6449 4.31771 13.7302L6.87201 16.2879L4.31904 18.8475C4.27398 18.8892 4.23775 18.9395 4.21249 18.9955C4.18723 19.0514 4.17347 19.1119 4.172 19.1732C4.17054 19.2346 4.18142 19.2956 4.20398 19.3527C4.22655 19.4098 4.26035 19.4618 4.30337 19.5056C4.3464 19.5494 4.39778 19.5841 4.45447 19.6076C4.51115 19.6312 4.57199 19.6431 4.63338 19.6427C4.69476 19.6424 4.75545 19.6296 4.81183 19.6054C4.86822 19.5811 4.91915 19.5457 4.96162 19.5014L7.52126 16.9405L10.0709 19.4914C10.1337 19.5582 10.2152 19.6046 10.3048 19.6244C10.3943 19.6442 10.4877 19.6367 10.5729 19.6026C10.6581 19.5686 10.731 19.5097 10.7823 19.4337C10.8335 19.3576 10.8606 19.2678 10.8601 19.1761C10.8604 19.1161 10.8488 19.0566 10.8259 19.0011C10.803 18.9456 10.7693 18.8952 10.7268 18.8528L8.17383 16.2892M23.3597 16.2912C23.3597 16.7511 23.733 17.1244 24.1929 17.1244C24.4139 17.1243 24.6258 17.0365 24.782 16.8801C24.9382 16.7238 25.0259 16.5119 25.0258 16.2909C25.0257 16.0699 24.9378 15.858 24.7815 15.7018C24.6252 15.5456 24.4132 15.4579 24.1922 15.458C23.7343 15.458 23.3617 15.8313 23.3617 16.2912M21.7832 16.2912C21.7832 14.9614 22.8631 13.8782 24.1922 13.8782C25.5187 13.8782 26.6005 14.9614 26.6005 16.2912C26.6005 17.621 25.5194 18.7042 24.1922 18.7042C23.5529 18.7031 22.9402 18.4484 22.4886 17.996C22.0369 17.5436 21.7832 16.9305 21.7832 16.2912ZM20.8354 16.2912C20.8354 18.1443 22.3418 19.6534 24.1922 19.6534C26.0426 19.6534 27.5491 18.1456 27.5491 16.2919C27.5491 14.4388 26.0426 12.9297 24.1922 12.9297C23.3015 12.9315 22.4479 13.2864 21.8186 13.9167C21.1893 14.547 20.8357 15.4005 20.8354 16.2912ZM20.5974 12.987H20.4574C20.0341 12.987 19.6262 13.1203 19.2856 13.3836C19.2622 13.2818 19.2051 13.1909 19.1235 13.1255C19.042 13.0602 18.9408 13.0243 18.8363 13.0237C18.7766 13.0237 18.7174 13.0355 18.6622 13.0584C18.6071 13.0814 18.557 13.115 18.5149 13.1574C18.4727 13.1997 18.4394 13.25 18.4168 13.3053C18.3942 13.3606 18.3827 13.4199 18.383 13.4796L18.3844 19.1421C18.3909 19.2591 18.442 19.3692 18.5271 19.4497C18.6123 19.5301 18.7251 19.5749 18.8423 19.5747C18.9595 19.5745 19.0721 19.5295 19.1571 19.4487C19.242 19.368 19.2928 19.2578 19.2989 19.1408V15.6586C19.2989 14.4988 19.4056 14.0295 20.3974 13.9055C20.4907 13.8942 20.5894 13.8962 20.5907 13.8962C20.8614 13.8862 21.0547 13.6989 21.0547 13.4463C21.0543 13.3245 21.0057 13.2079 20.9195 13.1219C20.8333 13.036 20.7165 12.9877 20.5947 12.9877M11.808 15.7386C11.808 15.7253 11.8093 15.712 11.81 15.7C11.9432 15.1739 12.249 14.7077 12.6785 14.3761C13.108 14.0444 13.6364 13.8665 14.179 13.8707C14.7217 13.8749 15.2472 14.0611 15.6715 14.3994C16.0958 14.7377 16.3943 15.2086 16.5193 15.7366H11.8073L11.808 15.7386ZM17.4558 15.652C17.2585 14.7168 16.7473 13.9482 15.9694 13.4549C15.4057 13.1011 14.7499 12.9218 14.0845 12.9396C13.4192 12.9573 12.7739 13.1714 12.2299 13.5549C11.6794 13.951 11.26 14.5026 11.0257 15.139C10.7913 15.7754 10.7527 16.4673 10.9148 17.1258C11.0843 17.7811 11.4463 18.3706 11.9541 18.8182C12.4619 19.2658 13.0923 19.5509 13.7637 19.6367C14.169 19.6861 14.5636 19.6634 14.9702 19.5567C15.3263 19.4702 15.6655 19.3252 15.9741 19.1275C16.2987 18.9188 16.57 18.6429 16.8339 18.3129C16.8379 18.3063 16.8433 18.3016 16.8486 18.2949C17.0312 18.0683 16.9972 17.7443 16.7973 17.591C16.628 17.461 16.344 17.4084 16.1214 17.695C16.0734 17.7643 16.0194 17.835 15.9614 17.905C15.7834 18.1016 15.5628 18.2916 15.2988 18.4396C14.9615 18.6195 14.5789 18.7215 14.1723 18.7242C12.8405 18.7089 12.1286 17.7777 11.8746 17.1138C11.8303 16.9878 11.7962 16.8586 11.7727 16.7271L11.766 16.6572H16.5453C17.1999 16.6425 17.5518 16.1792 17.4545 15.6506L17.4558 15.652Z" fill="white" style="fill:white;fill-opacity:1;"/>
</g>
<defs>
<clipPath id="clip0_6563_29137">
<rect width="32" height="32" fill="white" style="fill:white;fill-opacity:1;"/>
</clipPath>
</defs>
</svg>
